<?xml version="1.0" encoding="utf-8"?>
<!-- Generator: Fusion 360, Shaper Origin Export Add-In, Version 1.6.10  -->
<svg xmlns="http://www.w3.org/2000/svg" xmlns:xlink="http://www.w3.org/1999/xlink" xmlns:shaper="http://www.shapertools.com/namespaces/shaper" shaper:fusionaddin="version:1.6.10" width="7.6cm" height="6.25cm" version="1.1" x="0cm" y="0cm" viewBox="0 0 7.6 6.25" enable-background="new 0 0 7.6 6.25" xml:space="preserve"><path d="M2.7790693,1.0831386 L-1.2459307,1.0831386 A3.575,3.575 90 0,1 -4.8209307,-2.4918614 L-4.8209307,-5.1668614 2.7790693,-5.1668614 2.7790693,1.0831386z" transform="matrix(1,0,0,-1,4.8209307,1.0831386)" fill="rgb(0,0,0)" shaper:cutDepth="0.002" stroke-linecap="round" stroke-linejoin="round" /><path d="M0.696932,-2.1335189 A0.05,0.05 99 0,0 0.7125755,-2.2322878 L0.416269,-2.2792181 A0.05,0.05 279 0,0 0.4006255,-2.1804493 L0.696932,-2.1335189z" transform="matrix(1,0,0,-1,4.8209307,1.0831386)" fill="rgb(150,150,150)" fill-rule="nonzero" shaper:cutDepth="0.001" stroke-linecap="round" stroke-linejoin="round" /><path d="M-1.1924987,-0.5169513 A0.05,0.05 177 1,0 -1.0926357,-0.5221849 L-1.1083365,-0.8217737 A0.05,0.05 357 0,0 -1.2081995,-0.8165401 L-1.1924987,-0.5169513z" transform="matrix(1,0,0,-1,4.8209307,1.0831386)" fill="rgb(150,150,150)" fill-rule="nonzero" shaper:cutDepth="0.001" stroke-linecap="round" stroke-linejoin="round" /><path d="M-3.1665752,-2.0289901 A0.05,0.05 255 0,0 -3.1406933,-1.9323975 L-2.8509155,-2.0100432 A0.05,0.05 75 0,0 -2.8767974,-2.1066358 L-3.1665752,-2.0289901z" transform="matrix(1,0,0,-1,4.8209307,1.0831386)" fill="rgb(150,150,150)" fill-rule="nonzero" shaper:cutDepth="0.001" stroke-linecap="round" stroke-linejoin="round" /><path d="M-2.9019002,-1.4144154 A0.05,0.05 235.5 0,0 -2.8452596,-1.3320028 L-2.5980218,-1.5019247 A0.05,0.05 55.5 1,0 -2.6546624,-1.5843373 L-2.9019002,-1.4144154z" transform="matrix(1,0,0,-1,4.8209307,1.0831386)" fill="rgb(150,150,150)" fill-rule="nonzero" shaper:cutDepth="0.001" stroke-linecap="round" stroke-linejoin="round" /><path d="M-0.5363249,-0.6480652 A0.05,0.05 157.5 0,0 -0.443937,-0.6863335 L-0.558742,-0.9634974 A0.05,0.05 337.5 0,0 -0.6511299,-0.925229 L-0.5363249,-0.6480652z" transform="matrix(1,0,0,-1,4.8209307,1.0831386)" fill="rgb(150,150,150)" fill-rule="nonzero" shaper:cutDepth="0.001" stroke-linecap="round" stroke-linejoin="round" /><path d="M0.7051095,-2.8026138 A0.05,0.05 79.5 0,0 0.686886,-2.9009393 L0.3919095,-2.8462687 A0.05,0.05 259.5 0,0 0.410133,-2.7479432 L0.7051095,-2.8026138z" transform="matrix(1,0,0,-1,4.8209307,1.0831386)" fill="rgb(150,150,150)" fill-rule="nonzero" shaper:cutDepth="0.001" stroke-linecap="round" stroke-linejoin="round" /><path d="M1.8476407,1.0066468 L2.1476407,1.0066468 2.1476407,0.917361 2.0519264,0.917361 2.0519264,0.6337896 2.1290693,0.6687896 2.1712122,0.5916468 2.0219265,0.5066468 1.9304979,0.5066468 1.9304979,0.917361 1.8476407,0.917361 1.8476407,1.0066468z" transform="matrix(1,0,0,-1,4.8209307,1.0831386)" fill="rgb(150,150,150)" fill-rule="nonzero" shaper:cutDepth="0.001" stroke-linecap="round" stroke-linejoin="round" /><path d="M1.2790693,0.9702182 L1.2790693,0.9702182 1.2906091,0.9559593 1.3014616,0.9414255 1.3109396,0.9263418 1.3149484,0.9185079 1.3183576,0.910434 1.3233959,0.8935743 1.3265641,0.8759665 1.3284855,0.8578599 1.3297835,0.8395039 1.3297835,0.6752182 1.3297835,0.6752182 1.3285241,0.6566837 1.3266384,0.6383979 1.3235001,0.6206093 1.3184829,0.6035666 1.3150792,0.5954006 1.3110677,0.5874759 1.3015634,0.5722145 1.2906649,0.5575065 1.2790693,0.5430753 1.2790693,0.5430753 1.2629629,0.5318446 1.2466077,0.5213237 1.2297549,0.5122222 1.2210641,0.5084256 1.2121579,0.5052431 1.1937362,0.5006169 1.1746773,0.4978078 1.1551937,0.4962102 1.1354978,0.4952182 1.1354978,0.4952182 1.1159449,0.4961761 1.0966081,0.4977422 1.0777036,0.5005249 1.0594473,0.5051324 1.0506295,0.5083095 1.0420323,0.5121076 1.0253807,0.5212317 1.0092401,0.531794 0.9933549,0.5430753 0.9933549,0.5430753 0.9820412,0.5576003 0.9714129,0.5723904 0.9621554,0.5877105 0.9582549,0.5956523 0.9549515,0.6038249 0.9500926,0.6208463 0.9470666,0.6385764 0.9452624,0.6567792 0.9440693,0.6752182 0.9440693,0.8395039 0.9440693,0.8395039 0.9452998,0.8577646 0.9471385,0.8757883 0.9501935,0.893338 0.9550729,0.9101766 0.9583817,0.9182572 0.9622797,0.9261082 0.9715118,0.9412505 0.9820955,0.955866 0.9933549,0.9702182 0.9933549,0.9702182 1.0092401,0.9814996 1.0253807,0.9920619 1.0420322,1.001186 1.0506295,1.0049841 1.0594473,1.0081612 1.0777035,1.0127687 1.0966081,1.0155514 1.1159449,1.0171175 1.1354978,1.0180754 1.1354978,1.0180754 1.1551937,1.0170834 1.1746773,1.0154858 1.1937362,1.0126767 1.212158,1.0080505 1.2210641,1.004868 1.2297549,1.0010714 1.2466077,0.9919699 1.2629629,0.9814489 1.2790693,0.9702182z M1.0676406,0.8387896 L1.0676406,0.6745039 1.0676406,0.6745039 1.0686516,0.6568975 1.070551,0.6400364 1.0721116,0.6321182 1.0742274,0.6246659 1.0770097,0.6177725 1.0805693,0.6115313 1.0850175,0.6060353 1.090412,0.6013332 1.096645,0.5973345 1.103577,0.5939221 1.1189783,0.5883869 1.1354978,0.5837896 1.1354978,0.5837896 1.1504968,0.58508 1.1577049,0.5864036 1.1645634,0.5885415 1.1709732,0.5917243 1.1769873,0.5958286 1.188355,0.6055753 1.188355,0.6055753 1.1969458,0.6216356 1.200454,0.6298893 1.2030327,0.638407 1.204664,0.6471937 1.2055784,0.656184 1.2062122,0.6745039 1.2062122,0.8387896 1.2062122,0.8387896 1.2048273,0.8563117 1.2025414,0.8730432 1.200779,0.8808655 1.1984534,0.8881937 1.195452,0.894929 1.1916621,0.9009726 1.1869724,0.9062268 1.1813591,0.9106706 1.1749426,0.9144099 1.1678568,0.9175619 1.1522128,0.9225741 1.1354978,0.9266468 1.1354978,0.9266468 1.1191898,0.9223596 1.1039596,0.9171504 1.0970855,0.9139118 1.090885,0.910097 1.085493,0.9055905 1.0810218,0.9002963 1.0774284,0.8942512 1.0746033,0.8875488 1.0724367,0.880283 1.070819,0.8725477 1.0687908,0.8560442 1.0676406,0.8387896z" transform="matrix(1,0,0,-1,4.8209307,1.0831386)" fill="rgb(150,150,150)" fill-rule="nonzero" shaper:cutDepth="0.001" stroke-linecap="round" stroke-linejoin="round" /><path d="M0.8176408,0.9702182 L0.8176408,0.9702182 0.8291805,0.9559593 0.8400331,0.9414255 0.8495111,0.9263418 0.8535199,0.9185079 0.856929,0.910434 0.8619674,0.8935743 0.8651356,0.8759665 0.867057,0.8578599 0.868355,0.8395039 0.868355,0.6752182 0.868355,0.6752182 0.8670956,0.6566837 0.8652099,0.6383979 0.8620716,0.6206093 0.8570545,0.6035666 0.8536508,0.5954006 0.8496393,0.5874758 0.840135,0.5722145 0.8292364,0.5575065 0.8176408,0.5430753 0.8176408,0.5430753 0.8015344,0.5318446 0.7851792,0.5213237 0.7683264,0.5122222 0.7596355,0.5084256 0.7507294,0.5052431 0.7323076,0.5006169 0.7132488,0.4978078 0.6937652,0.4962102 0.6740693,0.4952182 0.6740693,0.4952182 0.6545164,0.4961761 0.6351796,0.4977422 0.6162751,0.5005249 0.5980188,0.5051324 0.589201,0.5083095 0.5806038,0.5121075 0.5639522,0.5212317 0.5478116,0.531794 0.5319265,0.5430753 0.5319265,0.5430753 0.5206128,0.5576003 0.5099845,0.5723904 0.500727,0.5877105 0.4968265,0.5956523 0.4935231,0.6038249 0.4886642,0.6208463 0.4856382,0.6385764 0.483834,0.6567792 0.4826409,0.6752182 0.4826409,0.8395039 0.4826409,0.8395039 0.4838714,0.8577646 0.4857101,0.8757883 0.4887651,0.893338 0.4936445,0.9101766 0.4969533,0.9182572 0.5008513,0.9261082 0.5100834,0.9412505 0.5206671,0.955866 0.5319265,0.9702182 0.5319265,0.9702182 0.5478116,0.9814996 0.5639522,0.9920619 0.5806038,1.0011861 0.589201,1.0049841 0.5980188,1.0081613 0.616275,1.0127687 0.6351796,1.0155514 0.6545164,1.0171175 0.6740693,1.0180754 0.6740693,1.0180754 0.6937652,1.0170834 0.7132488,1.0154858 0.7323076,1.0126767 0.7507294,1.0080505 0.7596355,1.004868 0.7683264,1.0010714 0.7851792,0.9919699 0.8015344,0.9814489 0.8176408,0.9702182z M0.6062121,0.8387896 L0.6062121,0.6745039 0.6062121,0.6745039 0.607223,0.6568975 0.6091225,0.6400364 0.610683,0.6321182 0.6127989,0.6246659 0.6155811,0.6177725 0.6191408,0.6115313 0.623589,0.6060353 0.6289834,0.6013332 0.6352165,0.5973345 0.6421485,0.5939221 0.6575498,0.5883869 0.6740693,0.5837896 0.6740693,0.5837896 0.6890683,0.58508 0.6962764,0.5864036 0.7031349,0.5885415 0.7095447,0.5917243 0.7155588,0.5958286 0.7269264,0.6055753 0.7269264,0.6055753 0.7355173,0.6216356 0.7390255,0.6298893 0.7416042,0.638407 0.7432355,0.6471937 0.7441498,0.656184 0.7447836,0.6745039 0.7447836,0.8387896 0.7447836,0.8387896 0.7433988,0.8563117 0.7411129,0.8730432 0.7393505,0.8808655 0.7370249,0.8881937 0.7340234,0.894929 0.7302336,0.9009726 0.7255439,0.9062268 0.7199306,0.9106706 0.7135141,0.9144099 0.7064283,0.9175619 0.6907843,0.9225741 0.6740693,0.9266468 0.6740693,0.9266468 0.6577613,0.9223596 0.6425311,0.9171503 0.635657,0.9139118 0.6294566,0.9100969 0.6240645,0.9055905 0.6195933,0.9002963 0.6159999,0.8942511 0.6131748,0.8875487 0.6110083,0.8802829 0.6093905,0.8725476 0.6073623,0.8560442 0.6062121,0.8387896z" transform="matrix(1,0,0,-1,4.8209307,1.0831386)" fill="rgb(150,150,150)" fill-rule="nonzero" shaper:cutDepth="0.001" stroke-linecap="round" stroke-linejoin="round" /><path d="M-0.5852164,0.5445039 L-0.5852164,0.5445039 -0.5963403,0.555479 -0.6068306,0.5667567 -0.6160535,0.5786399 -0.6199917,0.5849032 -0.6233758,0.5914312 -0.6284405,0.6053011 -0.6317013,0.6200328 -0.6337595,0.635339 -0.6352164,0.6509325 -0.6352164,0.6995039 -0.6352164,0.6995039 -0.6335485,0.7155414 -0.6312443,0.7312613 -0.6276679,0.7463458 -0.6252037,0.7535506 -0.6221828,0.7604775 -0.618545,0.7670962 -0.6143353,0.7734295 -0.6045276,0.7854028 -0.593413,0.7967236 -0.5816449,0.8077182 -0.5816449,0.8077182 -0.5650116,0.8168601 -0.5482127,0.8254235 -0.5310827,0.8328298 -0.5134575,0.8385063 -0.495284,0.8422671 -0.4766872,0.8445487 -0.4387878,0.8466468 -0.3887879,0.8466468 -0.3887879,1.0066468 -0.2637879,1.0066468 -0.2637879,0.5066468 -0.4502164,0.5066468 -0.4502164,0.5066468 -0.4861624,0.5086664 -0.5037812,0.5108769 -0.520975,0.5145282 -0.5376179,0.5200473 -0.5537621,0.527257 -0.5852164,0.5445039z M-0.4920021,0.6109325 L-0.4920021,0.6109325 -0.4802909,0.60375 -0.4742427,0.6007515 -0.4679646,0.5984616 -0.4614334,0.5969507 -0.4547074,0.5960399 -0.4409307,0.5952182 -0.3887879,0.5952182 -0.3887879,0.7580754 -0.4323594,0.7580754 -0.4323594,0.7580754 -0.4483622,0.7564043 -0.4635926,0.7538941 -0.4706767,0.7520622 -0.477278,0.7497058 -0.4833,0.7467202 -0.488646,0.7430005 -0.4932256,0.7384482 -0.4970537,0.7330798 -0.5002353,0.7270091 -0.502878,0.7203532 -0.5069782,0.7057539 -0.5102164,0.6902182 -0.5102164,0.6580754 -0.5102164,0.6580754 -0.5092145,0.6448468 -0.5081388,0.638466 -0.5063734,0.6323654 -0.5037163,0.626627 -0.500258,0.6212142 -0.4920021,0.6109325z" transform="matrix(1,0,0,-1,4.8209307,1.0831386)" fill="rgb(150,150,150)" fill-rule="nonzero" shaper:cutDepth="0.001" stroke-linecap="round" stroke-linejoin="round" /><path d="M-4.476702,-3.5144132 L-4.6738449,-3.5144132 -4.6738449,-3.4081274 -4.476702,-3.4081274 -4.476702,-3.165556 -4.326702,-3.165556 -4.326702,-3.765556 -4.709845,-3.765556 -4.709845,-3.657556 -4.476702,-3.657556 -4.476702,-3.5144132z" transform="matrix(1,0,0,-1,4.8209307,1.0831386)" fill="rgb(150,150,150)" fill-rule="nonzero" shaper:cutDepth="0.001" stroke-linecap="round" stroke-linejoin="round" /><path d="M-3.4135682,-1.5496258 L-3.4135682,-1.5496258 -3.3997205,-1.5667365 -3.3866974,-1.5841771 -3.3753238,-1.6022775 -3.3705132,-1.6116782 -3.3664222,-1.6213669 -3.3630719,-1.6313518 -3.3603762,-1.6415985 -3.3565744,-1.6627279 -3.3542687,-1.6844559 -3.3527111,-1.706483 -3.3527111,-1.9036259 -3.3527111,-1.9036259 -3.3542224,-1.9258672 -3.3564852,-1.9478102 -3.3602512,-1.9691565 -3.3629327,-1.9795127 -3.3662718,-1.9896078 -3.3703562,-1.999407 -3.37517,-2.0089167 -3.3865752,-2.0272304 -3.3996535,-2.0448799 -3.4135682,-2.0621973 -3.4135682,-2.0621973 -3.4328958,-2.0756742 -3.4525221,-2.0882993 -3.4727455,-2.0992211 -3.4831745,-2.103777 -3.4938618,-2.1075959 -3.5048034,-2.1106897 -3.5159679,-2.1131474 -3.5388386,-2.1165184 -3.5622188,-2.1184355 -3.5858539,-2.1196258 -3.5858539,-2.1196258 -3.6093174,-2.1184764 -3.6325215,-2.1165971 -3.655207,-2.1132578 -3.6662742,-2.1108127 -3.6771145,-2.1077289 -3.6876959,-2.1039163 -3.6980126,-2.0993586 -3.7179944,-2.0884097 -3.7373632,-2.0757349 -3.7564254,-2.0621973 -3.7564254,-2.0621973 -3.7700019,-2.0447674 -3.7827559,-2.0270193 -3.7938649,-2.0086351 -3.7985455,-1.999105 -3.8025096,-1.9892978 -3.8057457,-1.9792091 -3.8083403,-1.9688722 -3.8119715,-1.947596 -3.8141365,-1.9257527 -3.8155683,-1.9036259 -3.8155683,-1.706483 -3.8155683,-1.706483 -3.8140916,-1.6845702 -3.8118852,-1.6629417 -3.8082192,-1.6418821 -3.8056108,-1.6316545 -3.8023639,-1.6216758 -3.7983934,-1.611979 -3.7937157,-1.6025578 -3.7826371,-1.5843871 -3.7699367,-1.5668485 -3.7564254,-1.5496258 -3.7564254,-1.5496258 -3.7373632,-1.5360882 -3.7179945,-1.5234135 -3.6980126,-1.5124645 -3.6876959,-1.5079068 -3.6771145,-1.5040942 -3.6662742,-1.5010104 -3.655207,-1.4985652 -3.6325215,-1.495226 -3.6093174,-1.4933467 -3.5858539,-1.4921973 -3.5858539,-1.4921973 -3.5622188,-1.4933876 -3.5388385,-1.4953047 -3.5159679,-1.4986756 -3.5048034,-1.5011334 -3.4938618,-1.5042271 -3.4831744,-1.5080461 -3.4727455,-1.5126021 -3.4525221,-1.5235238 -3.4328958,-1.536149 -3.4135682,-1.5496258z M-3.6672825,-1.7073402 L-3.6672825,-1.904483 -3.6672825,-1.904483 -3.6660694,-1.9256107 -3.6637901,-1.9458441 -3.6619175,-1.9553459 -3.6593784,-1.9642887 -3.6560397,-1.9725607 -3.6517681,-1.9800502 -3.6464303,-1.9866453 -3.639957,-1.9922879 -3.6324773,-1.9970863 -3.6241589,-2.0011812 -3.6151697,-2.0047134 -3.6056773,-2.0078235 -3.5858539,-2.0133402 -3.5858539,-2.0133402 -3.5678551,-2.0117917 -3.5592054,-2.0102033 -3.5509752,-2.0076379 -3.5432835,-2.0038185 -3.5360666,-1.9988934 -3.5224254,-1.9871973 -3.5224254,-1.9871973 -3.5121164,-1.967925 -3.5079066,-1.9580205 -3.5048121,-1.9477993 -3.5028546,-1.9372553 -3.5017574,-1.9264669 -3.5009968,-1.904483 -3.5009968,-1.7073402 -3.5009968,-1.7073402 -3.5026586,-1.6863137 -3.5054016,-1.6662359 -3.5075166,-1.6568491 -3.5103073,-1.6480553 -3.513909,-1.6399729 -3.5184568,-1.6327206 -3.5240844,-1.6264156 -3.5308204,-1.621083 -3.5385202,-1.6165959 -3.5470231,-1.6128135 -3.5561686,-1.6095948 -3.565796,-1.6067988 -3.5858539,-1.6019116 -3.5858539,-1.6019116 -3.6054235,-1.6070562 -3.6148042,-1.6099743 -3.6236998,-1.6133073 -3.6319487,-1.6171936 -3.6393892,-1.6217714 -3.6458597,-1.6271791 -3.6512251,-1.6335321 -3.6555372,-1.6407863 -3.6589273,-1.6488292 -3.6615272,-1.6575482 -3.6634685,-1.6668305 -3.6659023,-1.6866346 -3.6672825,-1.7073402z" transform="matrix(1,0,0,-1,4.8209307,1.0831386)" fill="rgb(150,150,150)" fill-rule="nonzero" shaper:cutDepth="0.001" stroke-linecap="round" stroke-linejoin="round" /><path d="M-2.646172,-0.2969566 L-2.646172,-0.2969566 -2.6394594,-0.285598 -2.6340809,-0.273769 -2.630902,-0.2611645 -2.6290292,-0.2480995 -2.8930292,-0.2480995 -2.8930292,-0.1340995 -2.4807434,-0.1340995 -2.4807434,-0.2112424 -2.4807434,-0.2112424 -2.4824755,-0.2436608 -2.4842802,-0.2596334 -2.4872114,-0.275322 -2.4915922,-0.2906451 -2.4972597,-0.3056438 -2.5107434,-0.3350995 -2.5107434,-0.3350995 -2.5290884,-0.3602828 -2.538842,-0.3723071 -2.5492928,-0.383651 -2.5605534,-0.3942045 -2.5724525,-0.4041348 -2.5973149,-0.4229566 -2.6804577,-0.4786709 -2.6804577,-0.4786709 -2.6946726,-0.48838 -2.708437,-0.4986283 -2.7213446,-0.5099024 -2.7336006,-0.5219566 -2.7336006,-0.5219566 -2.7394309,-0.530858 -2.7439432,-0.5402252 -2.7462772,-0.5503619 -2.7473149,-0.5609566 -2.7473149,-0.5763852 -2.7473149,-0.5763852 -2.7454418,-0.5887196 -2.7438972,-0.5945854 -2.7416232,-0.6000895 -2.7384883,-0.6051669 -2.7346682,-0.6099045 -2.7258863,-0.6188138 -2.7258863,-0.6188138 -2.7120246,-0.6268798 -2.7048856,-0.630241 -2.697498,-0.6328 -2.6898387,-0.6344824 -2.6819705,-0.635491 -2.6658863,-0.6363852 -2.6658863,-0.6363852 -2.6483648,-0.6355241 -2.6310467,-0.633514 -2.6140747,-0.6295492 -2.5973149,-0.6243852 -2.5973149,-0.6243852 -2.5794375,-0.6165504 -2.561982,-0.6079232 -2.5451785,-0.5980716 -2.5287434,-0.5875281 -2.4678863,-0.6758138 -2.4678863,-0.6758138 -2.4910726,-0.6916878 -2.5149842,-0.7062282 -2.5401288,-0.7185015 -2.5660292,-0.7293852 -2.5660292,-0.7293852 -2.5942793,-0.7374814 -2.608505,-0.7409149 -2.6228514,-0.7436115 -2.6373381,-0.7454508 -2.6519355,-0.7466141 -2.6813149,-0.7478138 -2.6813149,-0.7478138 -2.7107051,-0.7465053 -2.7252718,-0.7451875 -2.7396846,-0.7430734 -2.7539004,-0.739941 -2.7679439,-0.7359179 -2.7957435,-0.7263852 -2.7957435,-0.7263852 -2.8169853,-0.7153259 -2.8271415,-0.7092161 -2.83674,-0.7024101 -2.8456308,-0.6947205 -2.853912,-0.6862699 -2.8694577,-0.6680995 -2.8694577,-0.6680995 -2.8801682,-0.64888 -2.8847729,-0.6390391 -2.888477,-0.6289208 -2.8910852,-0.6184649 -2.8928007,-0.6077339 -2.8947435,-0.5858138 -2.8947435,-0.5566709 -2.8947435,-0.5566709 -2.8925957,-0.5339715 -2.8907029,-0.5228925 -2.8878274,-0.5121384 -2.8837466,-0.5017827 -2.8786763,-0.4917542 -2.8668863,-0.4722423 -2.8668863,-0.4722423 -2.846642,-0.4499654 -2.8360763,-0.439328 -2.8249842,-0.4292856 -2.8133411,-0.4198656 -2.8012793,-0.4109187 -2.7764577,-0.3938138 -2.7027434,-0.3449566 -2.7027434,-0.3449566 -2.6871939,-0.3345699 -2.67234,-0.3233854 -2.6587861,-0.3107099 -2.646172,-0.2969566z" transform="matrix(1,0,0,-1,4.8209307,1.0831386)" fill="rgb(150,150,150)" fill-rule="nonzero" shaper:cutDepth="0.001" stroke-linecap="round" stroke-linejoin="round" /><path d="M-0.8349361,0.1943901 L-0.8349361,0.1078187 -1.0235076,-0.3044671 -1.1675076,-0.3044671 -0.990079,0.0812472 -1.1203647,0.0812472 -1.1477933,-0.0627528 -1.2635076,-0.0636099 -1.2635076,0.0812472 -1.3355075,0.0812472 -1.3355075,0.1943901 -1.2635076,0.1943901 -1.2635076,0.295533 -1.1152219,0.295533 -1.1152219,0.1943901 -0.8349361,0.1943901z" transform="matrix(1,0,0,-1,4.8209307,1.0831386)" fill="rgb(150,150,150)" fill-rule="nonzero" shaper:cutDepth="0.001" stroke-linecap="round" stroke-linejoin="round" /><path d="M0.2734346,-0.6845226 L0.2734346,-0.6845226 0.2552064,-0.671591 0.2466423,-0.6646085 0.2387382,-0.6570059 0.2316414,-0.648645 0.2252053,-0.6396634 0.2134346,-0.6206654 0.2134346,-0.6206654 0.2045365,-0.5987028 0.2007405,-0.5875722 0.197728,-0.5762623 0.1956453,-0.5647398 0.1943054,-0.5530475 0.1928632,-0.5293797 0.1928632,-0.4916654 0.1928632,-0.4916654 0.1947239,-0.4657134 0.1963905,-0.4529226 0.1989406,-0.4403539 0.202582,-0.4280597 0.2071264,-0.4159925 0.2177203,-0.3922368 0.2177203,-0.3922368 0.2328518,-0.370197 0.241066,-0.3598429 0.2500582,-0.3502877 0.2599725,-0.3416793 0.2706225,-0.3338263 0.2931489,-0.3193797 0.2931489,-0.3193797 0.3227618,-0.3071207 0.3377906,-0.3019565 0.3530858,-0.2979488 0.3686835,-0.2952547 0.3845171,-0.2935845 0.4165775,-0.2919511 0.4165775,-0.2919511 0.440581,-0.2936092 0.4642601,-0.296081 0.4872903,-0.3001801 0.4984607,-0.3030941 0.5093472,-0.30672 0.5199122,-0.3111523 0.5301633,-0.3163716 0.5401446,-0.3222676 0.549901,-0.3287276 0.5689192,-0.3428882 0.5875775,-0.3579511 0.5875775,-0.3579511 0.6018998,-0.3779814 0.6153478,-0.3983269 0.6270469,-0.4193027 0.6319674,-0.4301255 0.6361269,-0.4412226 0.6395176,-0.4525968 0.6422317,-0.4642149 0.6460167,-0.4880434 0.6482551,-0.5124293 0.6497203,-0.5370939 0.6497203,-0.5808082 0.6497203,-0.5808082 0.6473453,-0.616414 0.6437109,-0.65149 0.641028,-0.6686637 0.637558,-0.6855063 0.6331435,-0.7019515 0.6276272,-0.7179331 0.6208587,-0.7333879 0.6128496,-0.7483207 0.6037712,-0.7628035 0.5938018,-0.7769115 0.5719025,-0.8043027 0.5485775,-0.831094 0.5485775,-0.831094 0.5157601,-0.8515895 0.4825228,-0.8707933 0.4656154,-0.879507 0.4484455,-0.8874133 0.4309606,-0.8943507 0.4131145,-0.9001772 0.3949191,-0.9049294 0.3764179,-0.9087409 0.3576546,-0.9117459 0.3386727,-0.9140791 0.3002284,-0.9172669 0.2614346,-0.9193797 0.2614346,-0.8070939 0.2614346,-0.8070939 0.3048422,-0.8044583 0.3262878,-0.8020587 0.3474234,-0.7983611 0.3681537,-0.7929661 0.3885063,-0.7859889 0.4285775,-0.7693797 0.4285775,-0.7693797 0.4426883,-0.7587646 0.4561496,-0.7477194 0.4683119,-0.735814 0.473703,-0.7294044 0.4785259,-0.7226185 0.4827438,-0.7154319 0.4864199,-0.7078865 0.4924566,-0.6919247 0.4972552,-0.6751429 0.5014346,-0.6579511 0.5014346,-0.6579511 0.4865165,-0.6691867 0.4713481,-0.6797621 0.4556792,-0.6890169 0.4475788,-0.6929427 0.4392598,-0.6962919 0.4219661,-0.7012601 0.403982,-0.7044071 0.3855377,-0.7063398 0.3668632,-0.7076654 0.3668632,-0.7076654 0.3424185,-0.7061614 0.3303759,-0.7047016 0.3185491,-0.7023925 0.3069959,-0.6990062 0.295678,-0.6946934 0.2734346,-0.6845226z M0.3557203,-0.5838083 L0.3557203,-0.5838083 0.3675811,-0.5928744 0.3738177,-0.5966146 0.3804183,-0.5994123 0.3874027,-0.6012159 0.3946795,-0.6022625 0.4097203,-0.6030939 0.4097203,-0.6030939 0.4229169,-0.6023199 0.4358749,-0.6004709 0.448424,-0.5967805 0.4607203,-0.5919511 0.4607203,-0.5919511 0.4726154,-0.5849966 0.4839041,-0.5772499 0.4942314,-0.5682473 0.504006,-0.5585225 0.504006,-0.5156654 0.504006,-0.5156654 0.5033178,-0.4928576 0.5022814,-0.4816348 0.500414,-0.4706293 0.4974473,-0.4599112 0.4933923,-0.4494778 0.4834346,-0.429094 0.4834346,-0.429094 0.4702438,-0.4168598 0.4632109,-0.4117019 0.4556539,-0.4076935 0.4474999,-0.4049942 0.4388799,-0.4033168 0.4208632,-0.4016654 0.4208632,-0.4016654 0.4035315,-0.4028655 0.3951712,-0.4042187 0.3871773,-0.4064758 0.3796603,-0.4099086 0.3725796,-0.4144175 0.3591489,-0.4252368 0.3591489,-0.4252368 0.3498262,-0.4418201 0.34599,-0.4503576 0.3431333,-0.4591871 0.3413005,-0.4683217 0.3402461,-0.4776883 0.3394346,-0.4968082 0.3394346,-0.5242368 0.3394346,-0.5242368 0.3400749,-0.5401491 0.3409338,-0.5479451 0.3424392,-0.5555491 0.3447966,-0.5629 0.3479756,-0.5700067 0.3557203,-0.5838083z" transform="matrix(1,0,0,-1,4.8209307,1.0831386)" fill="rgb(150,150,150)" fill-rule="nonzero" shaper:cutDepth="0.001" stroke-linecap="round" stroke-linejoin="round" /><path d="M0.930378,-2.1202606 L0.930378,-2.1202606 0.91766,-2.0999597 0.9123152,-2.089472 0.9081849,-2.0785805 0.9054222,-2.0672341 0.903722,-2.0555345 0.9020923,-2.0315463 0.9020923,-1.9946891 0.9020923,-1.9946891 0.9047193,-1.9712712 0.9069788,-1.9599219 0.9103737,-1.949004 0.9151441,-1.938609 0.9210306,-1.9286381 0.9346638,-1.9094034 0.9346638,-1.9094034 0.9541445,-1.8911156 0.9643424,-1.8826659 0.9750891,-1.8750488 0.986471,-1.8683955 0.9983528,-1.8625007 1.0229495,-1.8519749 1.0229495,-1.8519749 1.0531854,-1.8432025 1.068412,-1.8394697 1.0837689,-1.8365208 1.0992791,-1.8344942 1.1149111,-1.8331999 1.1463781,-1.831832 1.1463781,-1.831832 1.1777517,-1.8331482 1.1933353,-1.8344217 1.2087951,-1.8364336 1.2240981,-1.8393811 1.2392663,-1.8431323 1.2693781,-1.8519749 1.2693781,-1.8519749 1.2932226,-1.8623685 1.3047298,-1.868182 1.315739,-1.8747356 1.3261134,-1.8822324 1.3359367,-1.8905482 1.3546638,-1.9085463 1.3546638,-1.9085463 1.3676996,-1.9277069 1.3733094,-1.9376193 1.3778296,-1.9479304 1.3810199,-1.9587279 1.3831238,-1.9699227 1.3855209,-1.9929749 1.3855209,-2.029832 1.3855209,-2.029832 1.3798975,-2.0513564 1.3731699,-2.0719663 1.369047,-2.0816424 1.3642341,-2.090747 1.3585931,-2.0991656 1.3520255,-2.1068167 1.3445966,-2.1137543 1.336414,-2.1200677 1.3275855,-2.1258459 1.3182186,-2.1311782 1.2983004,-2.1408618 1.2775209,-2.149832 1.2775209,-2.149832 1.2961889,-2.1599873 1.3051579,-2.1655155 1.3136889,-2.1715845 1.3216501,-2.1783572 1.329089,-2.1857746 1.3430924,-2.2016892 1.3430924,-2.2016892 1.3521119,-2.2193278 1.3559086,-2.228346 1.3588511,-2.2376026 1.3608262,-2.247129 1.3620478,-2.2568656 1.3632352,-2.2766892 1.3632352,-2.3101177 1.3632352,-2.3101177 1.3610489,-2.3314895 1.3591248,-2.3418752 1.3562034,-2.3519007 1.3520599,-2.3614847 1.3469135,-2.3707065 1.3349495,-2.3885463 1.3349495,-2.3885463 1.3178768,-2.4051895 1.3089114,-2.4128796 1.2994313,-2.4198125 1.2893564,-2.4258701 1.2788139,-2.4312397 1.2569495,-2.440832 1.2569495,-2.440832 1.2294628,-2.4489198 1.2156166,-2.4523511 1.2016469,-2.4550478 1.1875335,-2.456889 1.1733066,-2.4580547 1.1446638,-2.4592606 1.1446638,-2.4592606 1.116107,-2.4579917 1.1019271,-2.4567848 1.0878653,-2.4548908 1.0739525,-2.4521305 1.0601667,-2.4486318 1.0328066,-2.4404034 1.0328066,-2.4404034 1.0108446,-2.4308002 1.0002153,-2.425464 0.990008,-2.4194863 0.9803392,-2.41269 0.9711391,-2.4051812 0.9535209,-2.3889749 0.9535209,-2.3889749 0.9414144,-2.3724345 0.936173,-2.3638463 0.9319061,-2.3548764 0.9288487,-2.3454328 0.9267988,-2.3355946 0.924378,-2.3152606 0.924378,-2.2809749 0.924378,-2.2809749 0.9258945,-2.2638584 0.9273277,-2.2555454 0.9295709,-2.2475268 0.9328335,-2.2398787 0.9369623,-2.2325454 0.9466638,-2.2184034 0.9466638,-2.2184034 0.9625449,-2.2049306 0.9708407,-2.1987885 0.9795589,-2.1933534 0.9887238,-2.1886657 0.998229,-2.1845476 1.0178066,-2.1772606 1.0178066,-2.1772606 0.9936612,-2.1664324 0.9819536,-2.1604724 0.9706841,-2.1538572 0.9599868,-2.1463864 0.9498204,-2.1381217 0.930378,-2.1202606z M1.2033781,-2.2509749 L1.2033781,-2.2509749 1.190501,-2.243057 1.1771625,-2.2360805 1.1632159,-2.2303443 1.1489495,-2.2252606 1.1198066,-2.2149749 1.1198066,-2.2149749 1.1090051,-2.2207743 1.0986191,-2.2271518 1.0890069,-2.234606 1.0799495,-2.242832 1.0799495,-2.242832 1.0748698,-2.2505295 1.0710216,-2.2586588 1.0691343,-2.2674757 1.068378,-2.2766892 1.068378,-2.3032606 1.068378,-2.3032606 1.0699253,-2.3156431 1.0713392,-2.3215 1.0735214,-2.3269557 1.07666,-2.3319118 1.0805981,-2.3364505 1.0898066,-2.344832 1.0898066,-2.344832 1.1029704,-2.351244 1.1096907,-2.3539297 1.1165764,-2.3559928 1.1308588,-2.358198 1.1455209,-2.3589749 1.1455209,-2.3589749 1.1593861,-2.3583921 1.1729551,-2.3565736 1.1859889,-2.3525228 1.1986638,-2.3469748 1.1986638,-2.3469748 1.2073992,-2.3390913 1.2110916,-2.3347994 1.2139744,-2.3300878 1.2159265,-2.3248938 1.217149,-2.3193214 1.2183781,-2.3075463 1.2183781,-2.2835463 1.2183781,-2.2835463 1.2172953,-2.2741596 1.2147783,-2.2654418 1.2125812,-2.2615206 1.2098244,-2.2578603 1.2033781,-2.2509749z M1.068378,-2.0632606 L1.068378,-2.0632606 1.0846271,-2.0724242 1.1013034,-2.0806764 1.1185479,-2.0877168 1.1360924,-2.0941177 1.1789495,-2.1104035 1.1789495,-2.1104035 1.1914406,-2.1039272 1.2033614,-2.0966667 1.214234,-2.0879645 1.2243781,-2.0782606 1.2243781,-2.0782606 1.2305258,-2.0681039 1.2331125,-2.062868 1.2351157,-2.0574436 1.2372888,-2.046002 1.2380924,-2.0341177 1.2380924,-2.0075463 1.2380924,-2.0075463 1.236502,-1.9918505 1.2349441,-1.9843648 1.2324711,-1.9773136 1.2288348,-1.9708149 1.2241936,-1.9647934 1.2132352,-1.9535463 1.2132352,-1.9535463 1.1969382,-1.9452051 1.1885942,-1.9417428 1.1800171,-1.9391252 1.1711888,-1.9374176 1.1621682,-1.9364068 1.1438066,-1.9355463 1.1438066,-1.9355463 1.1255955,-1.9363766 1.1166267,-1.9373279 1.107822,-1.9389224 1.099231,-1.9413552 1.0908368,-1.9445595 1.0743781,-1.9522606 1.0743781,-1.9522606 1.0634277,-1.9619509 1.058729,-1.9672111 1.0549621,-1.9729693 1.0523222,-1.9793298 1.0505954,-1.9861784 1.0486638,-2.0006891 1.0486638,-2.0255463 1.0486638,-2.0255463 1.050205,-2.0367453 1.0515531,-2.042043 1.0535942,-2.0469785 1.056482,-2.0514714 1.0600625,-2.0556023 1.068378,-2.0632606z" transform="matrix(1,0,0,-1,4.8209307,1.0831386)" fill="rgb(150,150,150)" fill-rule="nonzero" shaper:cutDepth="0.001" stroke-linecap="round" stroke-linejoin="round" /><path d="M1.176902,-3.454065 L1.5369021,-3.454065 1.5369021,-3.5612078 1.4220449,-3.5612078 1.4220449,-3.9014935 1.5146164,-3.8594936 1.5651878,-3.952065 1.3860449,-4.054065 1.2763306,-4.054065 1.2763306,-3.5612078 1.176902,-3.5612078 1.176902,-3.454065z" transform="matrix(1,0,0,-1,4.8209307,1.0831386)" fill="rgb(150,150,150)" fill-rule="nonzero" shaper:cutDepth="0.001" stroke-linecap="round" stroke-linejoin="round" /><path d="M2.5790693,-4.5240043 L2.5226407,-4.5925757 2.5226407,-4.5925757 2.5072448,-4.5824151 2.4915037,-4.5728839 2.4751389,-4.5644906 2.458355,-4.5568614 2.458355,-4.5568614 2.4412147,-4.5519518 2.4238645,-4.5483436 2.4061979,-4.5466985 2.388355,-4.5461472 2.388355,-4.5461472 2.3711953,-4.5468919 2.3627599,-4.5477981 2.3544979,-4.549345 2.3464628,-4.5517311 2.3386409,-4.5549049 2.323355,-4.5625757 2.323355,-4.5625757 2.3141653,-4.5706507 2.3101416,-4.5750047 2.3068034,-4.5797382 2.3043395,-4.584956 2.302636,-4.590595 2.3004979,-4.6025757 2.3004979,-4.6111472 2.3004979,-4.6111472 2.3014567,-4.620842 2.3037619,-4.629985 2.3083778,-4.638181 2.3144264,-4.64579 2.3144264,-4.64579 2.3265821,-4.6541726 2.3393488,-4.6613797 2.3529245,-4.6670305 2.3669264,-4.6718614 2.4347836,-4.6947185 2.4347836,-4.6947185 2.4583858,-4.7037005 2.4810132,-4.7135311 2.4916568,-4.7190299 2.5016912,-4.7250591 2.5109946,-4.7317248 2.5194451,-4.7391331 2.5269208,-4.74739 2.5333463,-4.7565614 2.5388316,-4.7665514 2.5435336,-4.7772234 2.5476087,-4.7884412 2.5512139,-4.8000682 2.5576407,-4.8240043 2.5576407,-4.8425757 2.5576407,-4.8425757 2.555851,-4.8614919 2.5542736,-4.8707244 2.5518773,-4.8796861 2.5484767,-4.8883159 2.5442514,-4.896673 2.5344264,-4.9129328 2.5344264,-4.9129328 2.5202757,-4.9281869 2.5127826,-4.9352491 2.5047885,-4.941634 2.4962136,-4.9472336 2.4871815,-4.9522149 2.468355,-4.9611471 2.468355,-4.9611471 2.443943,-4.9687588 2.4316325,-4.9719736 2.4191968,-4.9744799 2.4066175,-4.9761741 2.3939258,-4.9772326 2.368355,-4.9782899 2.368355,-4.9782899 2.3430428,-4.9763654 2.3180164,-4.9736512 2.2935615,-4.969358 2.2816377,-4.9663725 2.2699639,-4.9626962 2.2585697,-4.9582474 2.2474384,-4.9530723 2.2258144,-4.9409575 2.2047916,-4.9271818 2.1840693,-4.9125757 2.2404979,-4.8475757 2.2404979,-4.8475757 2.2547399,-4.857419 2.2693694,-4.8665665 2.2846988,-4.874457 2.3004979,-4.8815043 2.3004979,-4.8815043 2.3144859,-4.8856581 2.328639,-4.8888453 2.3430609,-4.8904584 2.3576407,-4.8911471 2.3576407,-4.8911471 2.3722183,-4.8905628 2.386466,-4.8886419 2.393366,-4.8867744 2.4001141,-4.8842911 2.413355,-4.87829 2.413355,-4.87829 2.4212386,-4.872188 2.4247131,-4.8688526 2.4276268,-4.8651759 2.4298164,-4.8610584 2.4313573,-4.856546 2.433355,-4.8468614 2.433355,-4.8375757 2.433355,-4.8375757 2.4318388,-4.8294436 2.428943,-4.8220815 2.423901,-4.8159172 2.4176407,-4.8104328 2.4176407,-4.8104328 2.4043396,-4.802831 2.390642,-4.7960831 2.3764218,-4.7904616 2.3619264,-4.7854328 2.2940693,-4.7625757 2.2940693,-4.7625757 2.2705649,-4.7525121 2.2481507,-4.7415754 2.237693,-4.7355069 2.2279167,-4.7288926 2.2189579,-4.7216236 2.210953,-4.7135906 2.2040349,-4.7046874 2.1982119,-4.694907 2.1933361,-4.684368 2.1892498,-4.6731967 2.1857949,-4.6615198 2.1828137,-4.6494634 2.1776407,-4.6247186 2.1776407,-4.60329 2.1776407,-4.60329 2.1795574,-4.5821069 2.1812914,-4.5717749 2.1839561,-4.5617546 2.1877751,-4.5521207 2.1925541,-4.5428081 2.2037121,-4.5247186 2.2037121,-4.5247186 2.2191136,-4.5084859 2.2272444,-4.5009608 2.2358911,-4.4941448 2.2451433,-4.4881611 2.2548757,-4.4828374 2.2751407,-4.47329 2.2751407,-4.47329 2.2998121,-4.4655122 2.3122521,-4.4622027 2.3248172,-4.4595885 2.3375296,-4.457792 2.3503588,-4.4566449 2.3762122,-4.4554328 2.3762122,-4.4554328 2.4040222,-4.4570283 2.4315318,-4.4594787 2.4584401,-4.4636388 2.4715748,-4.4666271 2.4844466,-4.4703634 2.4970194,-4.47495 2.5092953,-4.4803808 2.5213153,-4.4865394 2.533122,-4.4933045 2.5562663,-4.5081692 2.5790693,-4.5240043z" transform="matrix(1,0,0,-1,4.8209307,1.0831386)" fill="rgb(150,150,150)" fill-rule="nonzero" shaper:cutDepth="0.001" stroke-linecap="round" stroke-linejoin="round" /><path d="M1.6447835,-4.4668614 L1.6447835,-4.7654329 1.6954978,-4.7654329 1.6954978,-4.8518614 1.5219264,-4.8518614 1.5219264,-4.4668614 1.6447835,-4.4668614z" transform="matrix(1,0,0,-1,4.8209307,1.0831386)" fill="rgb(150,150,150)" fill-rule="nonzero" shaper:cutDepth="0.001" stroke-linecap="round" stroke-linejoin="round" /><path d="M1.1079978,-4.8290043 L1.1079978,-4.8290043 1.0924202,-4.8074919 1.0858738,-4.7962697 1.0808153,-4.7844892 1.077432,-4.7720804 1.07535,-4.7591834 1.073355,-4.7325757 1.073355,-4.4668614 1.1962122,-4.4668614 1.1962122,-4.7240043 1.1962122,-4.7240043 1.1971924,-4.7347067 1.1987284,-4.7449094 1.2013762,-4.7541127 1.2032906,-4.7581834 1.2056915,-4.7618169 1.2086461,-4.7649526 1.2121563,-4.7675888 1.2205368,-4.7716386 1.2301973,-4.7745377 1.2404979,-4.7768614 1.2404979,-4.7768614 1.2583189,-4.7734386 1.2667201,-4.7707979 1.274512,-4.7670448 1.2816233,-4.7620496 1.2882076,-4.7560926 1.3004979,-4.7425757 1.3004979,-4.4668614 1.423355,-4.4668614 1.423355,-4.8518614 1.3169264,-4.8518614 1.3104979,-4.8168614 1.3104979,-4.8168614 1.2996697,-4.8274444 1.2881347,-4.837042 1.2753986,-4.8449648 1.2619264,-4.8518614 1.2619264,-4.8518614 1.2466221,-4.8569113 1.2310857,-4.8607198 1.2151826,-4.8625672 1.1990693,-4.86329 1.1990693,-4.86329 1.1738637,-4.8610328 1.1616646,-4.8588584 1.14995,-4.8554291 1.1388486,-4.8504116 1.1282728,-4.8440326 1.1079978,-4.8290043z" transform="matrix(1,0,0,-1,4.8209307,1.0831386)" fill="rgb(150,150,150)" fill-rule="nonzero" shaper:cutDepth="0.001" stroke-linecap="round" stroke-linejoin="round" /><path d="M-2.295931,-4.4668614 L-2.2059308,-4.4668614 -2.1909309,-4.5075757 -2.1909309,-4.5075757 -2.1799242,-4.4963494 -2.1686257,-4.4857212 -2.1567436,-4.4762896 -2.1439859,-4.4686525 -2.1301509,-4.463224 -2.115428,-4.4596157 -2.1001132,-4.4572209 -2.0845023,-4.4554328 -2.0845023,-4.4554328 -2.0636536,-4.4570325 -2.0534169,-4.4584939 -2.0434054,-4.4607491 -2.0336741,-4.4639924 -2.0241771,-4.4680614 -2.0055734,-4.4775757 -2.0055734,-4.4775757 -1.9889056,-4.4907437 -1.9811262,-4.497802 -1.974012,-4.5054293 -1.9676863,-4.513731 -1.9619897,-4.5225708 -1.951645,-4.5411472 -1.951645,-4.5411472 -1.9431098,-4.5646738 -1.9395003,-4.5765717 -1.9366799,-4.5886308 -1.934768,-4.6008756 -1.9335691,-4.6132661 -1.9323593,-4.63829 -1.9323593,-4.6804328 -1.9323593,-4.6804328 -1.9337251,-4.7050835 -1.9350265,-4.7172741 -1.9370699,-4.729303 -1.9400498,-4.7411278 -1.9438282,-4.7527786 -1.9527164,-4.77579 -1.9527164,-4.77579 -1.9635276,-4.7945641 -1.9694392,-4.8035145 -1.975958,-4.8119408 -1.9832378,-4.8197103 -1.9911596,-4.8269257 -2.0080734,-4.8404329 -2.0080734,-4.8404329 -2.0263627,-4.8501352 -2.0357086,-4.8543033 -2.0452961,-4.8576517 -2.0551767,-4.860005 -2.0652957,-4.8615494 -2.0859309,-4.86329 -2.0859309,-4.86329 -2.1099129,-4.8610928 -2.121538,-4.8590218 -2.1327242,-4.8557837 -2.1433582,-4.8510777 -2.1535236,-4.8451263 -2.1730734,-4.8311472 -2.1730734,-4.9954328 -2.295931,-4.9954328 -2.295931,-4.4668614z M-2.1730734,-4.5754328 L-2.1730734,-4.7525757 -2.1730734,-4.7525757 -2.1606019,-4.762896 -2.1540552,-4.7673277 -2.1471352,-4.7708853 -2.1397627,-4.7733833 -2.1320228,-4.7750207 -2.1159306,-4.7768614 -2.1159306,-4.7768614 -2.1025384,-4.7752973 -2.0961851,-4.773837 -2.0902433,-4.7715629 -2.0848174,-4.7682682 -2.0798273,-4.7641115 -2.0705734,-4.7543614 -2.0705734,-4.7543614 -2.063117,-4.7376424 -2.0600848,-4.7291154 -2.0578716,-4.7203913 -2.0564821,-4.7114692 -2.0557146,-4.7023974 -2.0552164,-4.6840043 -2.0552164,-4.6361471 -2.0552164,-4.6361471 -2.0553852,-4.6190221 -2.0563741,-4.6025092 -2.0574324,-4.5946738 -2.0590034,-4.5872209 -2.0611895,-4.5802273 -2.0640932,-4.5737694 -2.0678171,-4.5679237 -2.0724574,-4.5627621 -2.0779844,-4.5582624 -2.084254,-4.554317 -2.0984269,-4.5476458 -2.1137877,-4.5418614 -2.1137877,-4.5418614 -2.1315105,-4.5449763 -2.1398582,-4.547468 -2.1475902,-4.55108 -2.1546118,-4.5559842 -2.1610756,-4.5619033 -2.1730734,-4.5754328z" transform="matrix(1,0,0,-1,4.8209307,1.0831386)" fill="rgb(150,150,150)" fill-rule="nonzero" shaper:cutDepth="0.001" stroke-linecap="round" stroke-linejoin="round" /><path d="M-0.0152164,-4.6261471 L0.2147836,-4.6261471 0.2147836,-4.6261471 0.2141067,-4.6086833 0.2131355,-4.6001547 0.2114049,-4.5918701 0.208671,-4.5839079 0.204954,-4.5762617 0.1958551,-4.5615043 0.1958551,-4.5615043 0.1815861,-4.5520878 0.1741599,-4.5482363 0.1663886,-4.5453977 0.158264,-4.5435967 0.1498716,-4.5425816 0.1326407,-4.5418614 0.1326407,-4.5418614 0.1055409,-4.5445192 0.0922048,-4.5466426 0.079125,-4.5497185 0.0663406,-4.553892 0.053788,-4.558927 0.0290693,-4.5704328 -0.0087877,-4.5011471 -0.0087877,-4.5011471 0.0077854,-4.4911725 0.0248311,-4.4821911 0.0426271,-4.4747866 0.0608551,-4.46829 0.0608551,-4.46829 0.0809595,-4.4628941 0.1012497,-4.4586833 0.1218513,-4.4564588 0.1426407,-4.4554328 0.1426407,-4.4554328 0.1694837,-4.4569078 0.1827342,-4.4583718 0.1957797,-4.4607075 0.2085637,-4.4641545 0.2211205,-4.4685673 0.245855,-4.4790042 0.245855,-4.4790042 0.2655744,-4.4919385 0.2748778,-4.4989661 0.2835137,-4.5066664 0.2913245,-4.5151979 0.2984523,-4.5244177 0.3115694,-4.5440042 0.3115694,-4.5440042 0.3213298,-4.5665722 0.3254892,-4.5780311 0.3287838,-4.5896999 0.3310557,-4.6016168 0.3325129,-4.6137313 0.3340694,-4.63829 0.3340694,-4.6775757 0.3340694,-4.6775757 0.3325964,-4.7025983 0.3311992,-4.7149574 0.3290091,-4.7271338 0.3258199,-4.73908 0.3217803,-4.7508303 0.3122837,-4.7740043 0.3122837,-4.7740043 0.3000213,-4.7935318 0.2933337,-4.8027689 0.2859786,-4.8113739 0.2778042,-4.8192034 0.2689569,-4.8263957 0.2501408,-4.8397186 0.2501408,-4.8397186 0.2276067,-4.8500349 0.2161419,-4.8544164 0.2044398,-4.8578663 0.1924603,-4.8602272 0.1802614,-4.8617267 0.1554979,-4.86329 0.1554979,-4.86329 0.137302,-4.8623181 0.1193419,-4.860739 0.1018535,-4.8579454 0.0850726,-4.8533302 0.0770207,-4.8501509 0.0692089,-4.8463534 0.0541757,-4.8372386 0.039698,-4.8266933 0.0254981,-4.8154328 0.0254981,-4.8154328 0.0149331,-4.7989621 0.0050779,-4.782262 -0.0033575,-4.765103 -0.0068209,-4.7562798 -0.0096817,-4.7472617 -0.0137691,-4.7286975 -0.0161513,-4.7095821 -0.0180734,-4.6704329 -0.0180734,-4.6704329 -0.0172439,-4.6482527 -0.0152164,-4.6261471z M0.1051408,-4.7643614 L0.1051408,-4.7643614 0.1150974,-4.7737792 0.1204185,-4.7777464 0.1261503,-4.7808252 0.1323486,-4.782895 0.1389106,-4.784178 0.1526407,-4.7854328 0.1526407,-4.7854328 0.1661128,-4.7840056 0.1725254,-4.7826268 0.1785499,-4.7804498 0.1840829,-4.7772618 0.1891939,-4.7732059 0.1987123,-4.7636471 0.1987123,-4.7636471 0.2062683,-4.7473202 0.2093644,-4.7389822 0.2116586,-4.7304392 0.2131485,-4.7216903 0.2140309,-4.712786 0.2147836,-4.6947185 0.0897836,-4.6947185 0.0897836,-4.6968614 0.0897836,-4.6968614 0.0902594,-4.7145832 0.0910179,-4.7233131 0.0924012,-4.7318856 0.0946122,-4.7402497 0.0976517,-4.7484053 0.1051408,-4.7643614z" transform="matrix(1,0,0,-1,4.8209307,1.0831386)" fill="rgb(150,150,150)" fill-rule="nonzero" shaper:cutDepth="0.001" stroke-linecap="round" stroke-linejoin="round" /><path d="M-0.9955734,-4.8415043 L-0.9955734,-4.8415043 -1.0114634,-4.8282523 -1.0188603,-4.8211783 -1.0255996,-4.8135669 -1.0315702,-4.8053274 -1.0369329,-4.796591 -1.0466448,-4.77829 -1.0466448,-4.77829 -1.0549014,-4.7545338 -1.0583868,-4.7425297 -1.0611017,-4.7303746 -1.0629349,-4.7180468 -1.0640785,-4.7055839 -1.0652162,-4.6804328 -1.0652162,-4.6390043 -1.0652162,-4.6390043 -1.0638639,-4.6139689 -1.0625549,-4.60159 -1.0604863,-4.5893777 -1.0574552,-4.5773763 -1.0535971,-4.5655563 -1.0445019,-4.5422186 -1.0445019,-4.5422186 -1.0335827,-4.5235171 -1.0276209,-4.5146052 -1.0210566,-4.50622 -1.0137359,-4.4984958 -1.0057754,-4.4913307 -0.9887877,-4.4779329 -0.9887877,-4.4779329 -0.9706408,-4.4684107 -0.9613727,-4.4643156 -0.9518711,-4.4610196 -0.9420851,-4.4586969 -0.9320672,-4.4571679 -0.9116448,-4.4554328 -0.9116448,-4.4554328 -0.8885426,-4.4575824 -0.8772748,-4.4595024 -0.8663469,-4.4624366 -0.8558384,-4.466622 -0.8456765,-4.4718416 -0.8259304,-4.4840043 -0.8259304,-4.3240043 -0.7030734,-4.3240043 -0.7030734,-4.8518614 -0.809502,-4.8518614 -0.8159305,-4.8168614 -0.8159305,-4.8168614 -0.8272448,-4.8271597 -0.8388172,-4.8368749 -0.8509058,-4.8454239 -0.8637684,-4.8522238 -0.8775538,-4.8569388 -0.8920782,-4.8599837 -0.9070955,-4.8619152 -0.9223591,-4.86329 -0.9223591,-4.86329 -0.941804,-4.8616568 -0.9513334,-4.8601952 -0.9606312,-4.8579596 -0.9696428,-4.8547682 -0.9784178,-4.8507861 -0.9955734,-4.8415043z M-0.9277161,-4.7547186 L-0.9277161,-4.7547186 -0.919326,-4.764118 -0.9147788,-4.768156 -0.9098088,-4.7713997 -0.9043258,-4.7736794 -0.8984257,-4.7751754 -0.8859304,-4.7768614 -0.8859304,-4.7768614 -0.8683394,-4.7742997 -0.8599914,-4.7721351 -0.8521804,-4.76891 -0.8450133,-4.7644132 -0.8383645,-4.758893 -0.8259304,-4.7461471 -0.8259304,-4.5611471 -0.8259304,-4.5611471 -0.838354,-4.5530785 -0.8447602,-4.5495941 -0.8513997,-4.5467696 -0.8583267,-4.5447587 -0.8654913,-4.5434196 -0.8802162,-4.5418614 -0.8802162,-4.5418614 -0.8937825,-4.5435031 -0.9002217,-4.5450077 -0.9062482,-4.5473329 -0.9117603,-4.5506807 -0.916842,-4.5548844 -0.9262877,-4.5647185 -0.9262877,-4.5647185 -0.933958,-4.5809301 -0.9371015,-4.5892122 -0.9394261,-4.5977031 -0.9409063,-4.6064094 -0.9417463,-4.6152789 -0.9423591,-4.63329 -0.9423591,-4.6875757 -0.9423591,-4.6875757 -0.9418393,-4.7051109 -0.9410896,-4.7137616 -0.9397519,-4.722272 -0.9376374,-4.730597 -0.9347606,-4.7387402 -0.9277161,-4.7547186z" transform="matrix(1,0,0,-1,4.8209307,1.0831386)" fill="rgb(150,150,150)" fill-rule="nonzero" shaper:cutDepth="0.001" stroke-linecap="round" stroke-linejoin="round" /><path d="M-1.8752166,-4.6261471 L-1.6452166,-4.6261471 -1.6452166,-4.6261471 -1.6458934,-4.6086833 -1.6468647,-4.6001547 -1.6485953,-4.5918701 -1.6513292,-4.5839079 -1.6550462,-4.5762617 -1.6641451,-4.5615043 -1.6641451,-4.5615043 -1.678414,-4.5520878 -1.6858402,-4.5482363 -1.6936115,-4.5453976 -1.7017361,-4.5435966 -1.7101285,-4.5425816 -1.7273594,-4.5418614 -1.7273594,-4.5418614 -1.7544593,-4.5445192 -1.7677954,-4.5466425 -1.7808752,-4.5497184 -1.7936596,-4.5538919 -1.8062121,-4.5589269 -1.8309308,-4.5704328 -1.8687883,-4.5011471 -1.8687883,-4.5011471 -1.8522152,-4.4911725 -1.8351694,-4.482191 -1.8173734,-4.4747865 -1.7991453,-4.46829 -1.7991453,-4.46829 -1.7790409,-4.4628941 -1.7587507,-4.4586833 -1.7381491,-4.4564588 -1.7173596,-4.4554328 -1.7173596,-4.4554328 -1.6905167,-4.4569079 -1.6772662,-4.4583719 -1.6642207,-4.4607076 -1.6514367,-4.4641546 -1.6388799,-4.4685674 -1.6141454,-4.4790042 -1.6141454,-4.4790042 -1.5944259,-4.4919384 -1.5851224,-4.498966 -1.5764866,-4.5066663 -1.5686757,-4.5151978 -1.561548,-4.5244176 -1.548431,-4.5440042 -1.548431,-4.5440042 -1.5386707,-4.5665723 -1.5345114,-4.5780312 -1.5312168,-4.5896999 -1.5289449,-4.6016168 -1.5274876,-4.6137314 -1.525931,-4.63829 -1.525931,-4.6775757 -1.525931,-4.6775757 -1.527404,-4.7025983 -1.5288012,-4.7149574 -1.5309913,-4.7271338 -1.5341805,-4.73908 -1.53822,-4.7508303 -1.5477167,-4.7740043 -1.5477167,-4.7740043 -1.5599792,-4.7935318 -1.5666668,-4.8027688 -1.5740219,-4.8113738 -1.5821963,-4.8192033 -1.5910435,-4.8263956 -1.6098596,-4.8397186 -1.6098596,-4.8397186 -1.6323936,-4.8500348 -1.6438584,-4.8544163 -1.6555605,-4.8578662 -1.66754,-4.8602271 -1.6797388,-4.8617266 -1.7045022,-4.86329 -1.7045022,-4.86329 -1.7226981,-4.8623181 -1.7406582,-4.8607389 -1.7581467,-4.8579453 -1.7749276,-4.8533301 -1.7829795,-4.8501507 -1.7907913,-4.8463533 -1.8058246,-4.8372385 -1.8203023,-4.8266933 -1.8345023,-4.8154328 -1.8345023,-4.8154328 -1.8450673,-4.7989621 -1.8549224,-4.782262 -1.8633578,-4.765103 -1.8668213,-4.7562798 -1.8696821,-4.7472617 -1.8737695,-4.7286975 -1.8761517,-4.7095821 -1.8780738,-4.6704329 -1.8780738,-4.6704329 -1.8772441,-4.6482527 -1.8752166,-4.6261471z M-1.7548595,-4.7643614 L-1.7548595,-4.7643614 -1.7449029,-4.7737791 -1.7395818,-4.7777464 -1.7338499,-4.7808252 -1.7276516,-4.7828949 -1.7210896,-4.784178 -1.7073594,-4.7854328 -1.7073594,-4.7854328 -1.6938875,-4.7840055 -1.6874749,-4.7826267 -1.6814505,-4.7804497 -1.6759176,-4.7772617 -1.6708066,-4.7732059 -1.6612884,-4.7636471 -1.6612884,-4.7636471 -1.653732,-4.7473202 -1.6506358,-4.7389823 -1.6483415,-4.7304393 -1.6468516,-4.7216904 -1.6459692,-4.7127861 -1.6452166,-4.6947185 -1.7702166,-4.6947185 -1.7702166,-4.6968614 -1.7702166,-4.6968614 -1.7697405,-4.7145832 -1.768982,-4.723313 -1.7675987,-4.7318855 -1.7653877,-4.7402496 -1.7623484,-4.7484052 -1.7548595,-4.7643614z" transform="matrix(1,0,0,-1,4.8209307,1.0831386)" fill="rgb(150,150,150)" fill-rule="nonzero" shaper:cutDepth="0.001" stroke-linecap="round" stroke-linejoin="round" /><path d="M-1.4709307,-4.6261471 L-1.2409306,-4.6261471 -1.2409306,-4.6261471 -1.2416075,-4.6086833 -1.2425788,-4.6001547 -1.2443094,-4.5918701 -1.2470432,-4.5839079 -1.2507603,-4.5762617 -1.2598592,-4.5615043 -1.2598592,-4.5615043 -1.2741281,-4.5520878 -1.2815544,-4.5482363 -1.2893256,-4.5453977 -1.2974503,-4.5435967 -1.3058426,-4.5425816 -1.3230735,-4.5418614 -1.3230735,-4.5418614 -1.3501733,-4.5445192 -1.3635094,-4.5466426 -1.3765892,-4.5497185 -1.3893736,-4.553892 -1.4019262,-4.558927 -1.4266449,-4.5704328 -1.4645019,-4.5011471 -1.4645019,-4.5011471 -1.4479288,-4.4911726 -1.4308831,-4.4821912 -1.4130871,-4.4747867 -1.3948592,-4.46829 -1.3948592,-4.46829 -1.3747547,-4.4628941 -1.3544645,-4.4586833 -1.3338629,-4.4564588 -1.3130735,-4.4554328 -1.3130735,-4.4554328 -1.2862306,-4.4569078 -1.27298,-4.4583718 -1.2599345,-4.4607075 -1.2471505,-4.4641545 -1.2345937,-4.4685673 -1.2098592,-4.4790042 -1.2098592,-4.4790042 -1.1901398,-4.4919385 -1.1808364,-4.4989661 -1.1722006,-4.5066664 -1.1643897,-4.5151979 -1.1572619,-4.5244177 -1.1441449,-4.5440042 -1.1441449,-4.5440042 -1.1343844,-4.5665722 -1.130225,-4.5780311 -1.1269305,-4.5896999 -1.1246585,-4.6016168 -1.1232013,-4.6137313 -1.1216448,-4.63829 -1.1216448,-4.6775757 -1.1216448,-4.6775757 -1.1231178,-4.7025983 -1.124515,-4.7149574 -1.1267051,-4.7271338 -1.1298943,-4.73908 -1.1339339,-4.7508303 -1.1434306,-4.7740043 -1.1434306,-4.7740043 -1.1556929,-4.7935318 -1.1623805,-4.8027689 -1.1697357,-4.8113739 -1.17791,-4.8192034 -1.1867573,-4.8263957 -1.2055734,-4.8397186 -1.2055734,-4.8397186 -1.2281075,-4.8500349 -1.2395723,-4.8544164 -1.2512745,-4.8578663 -1.263254,-4.8602272 -1.2754528,-4.8617267 -1.3002163,-4.86329 -1.3002163,-4.86329 -1.3184123,-4.8623181 -1.3363724,-4.860739 -1.3538608,-4.8579455 -1.3706417,-4.8533302 -1.3786936,-4.8501509 -1.3865054,-4.8463534 -1.4015387,-4.8372386 -1.4160165,-4.8266933 -1.4302164,-4.8154328 -1.4302164,-4.8154328 -1.4407814,-4.7989621 -1.4506365,-4.782262 -1.4590719,-4.765103 -1.4625354,-4.7562798 -1.4653962,-4.7472617 -1.4694836,-4.7286975 -1.4718657,-4.7095821 -1.4737879,-4.6704329 -1.4737879,-4.6704329 -1.4729582,-4.6482527 -1.4709307,-4.6261471z M-1.3505734,-4.7643614 L-1.3505734,-4.7643614 -1.3406168,-4.7737792 -1.3352958,-4.7777464 -1.3295639,-4.7808252 -1.3233656,-4.782895 -1.3168036,-4.784178 -1.3030735,-4.7854328 -1.3030735,-4.7854328 -1.2896014,-4.7840056 -1.2831888,-4.7826269 -1.2771642,-4.7804499 -1.2716313,-4.7772619 -1.2665203,-4.773206 -1.257002,-4.7636471 -1.257002,-4.7636471 -1.2494458,-4.7473202 -1.2463496,-4.7389823 -1.2440554,-4.7304392 -1.2425656,-4.7216903 -1.2416831,-4.7127861 -1.2409306,-4.6947185 -1.3659306,-4.6947185 -1.3659306,-4.6968614 -1.3659306,-4.6968614 -1.3654548,-4.7145832 -1.3646963,-4.7233131 -1.3633131,-4.7318856 -1.361102,-4.7402497 -1.3580626,-4.7484053 -1.3505734,-4.7643614z" transform="matrix(1,0,0,-1,4.8209307,1.0831386)" fill="rgb(150,150,150)" fill-rule="nonzero" shaper:cutDepth="0.001" stroke-linecap="round" stroke-linejoin="round" /><path d="M-0.2252165,-4.5240043 L-0.2816451,-4.5925757 -0.2816451,-4.5925757 -0.2970411,-4.5824151 -0.3127821,-4.572884 -0.3291469,-4.5644906 -0.3459307,-4.5568614 -0.3459307,-4.5568614 -0.3630711,-4.5519518 -0.3804212,-4.5483436 -0.3980879,-4.5466985 -0.4159308,-4.5461472 -0.4159308,-4.5461472 -0.4330905,-4.5468919 -0.4415259,-4.5477981 -0.449788,-4.549345 -0.4578231,-4.5517311 -0.465645,-4.5549049 -0.4809309,-4.5625757 -0.4809309,-4.5625757 -0.4901206,-4.5706507 -0.4941442,-4.5750047 -0.4974824,-4.5797382 -0.4999463,-4.584956 -0.5016497,-4.590595 -0.5037878,-4.6025757 -0.5037878,-4.6111472 -0.5037878,-4.6111472 -0.5028291,-4.6208419 -0.5005239,-4.6299849 -0.495908,-4.638181 -0.4898594,-4.64579 -0.4898594,-4.64579 -0.4777038,-4.6541726 -0.464937,-4.6613796 -0.4513613,-4.6670305 -0.4373594,-4.6718614 -0.3695022,-4.6947185 -0.3695022,-4.6947185 -0.3459,-4.7037005 -0.3232725,-4.7135311 -0.3126289,-4.7190299 -0.3025945,-4.7250591 -0.2932912,-4.7317248 -0.2848407,-4.7391331 -0.277365,-4.74739 -0.2709395,-4.7565614 -0.2654541,-4.7665514 -0.2607522,-4.7772234 -0.256677,-4.7884412 -0.2530719,-4.8000682 -0.2466451,-4.8240043 -0.2466451,-4.8425757 -0.2466451,-4.8425757 -0.2484348,-4.8614919 -0.2500122,-4.8707244 -0.2524085,-4.8796861 -0.2558091,-4.8883159 -0.2600344,-4.896673 -0.2698594,-4.9129328 -0.2698594,-4.9129328 -0.2840101,-4.9281869 -0.2915031,-4.9352491 -0.2994972,-4.941634 -0.3080721,-4.9472336 -0.3171042,-4.952215 -0.3359307,-4.9611471 -0.3359307,-4.9611471 -0.3603427,-4.9687588 -0.3726532,-4.9719736 -0.3850889,-4.9744799 -0.3976683,-4.9761742 -0.41036,-4.9772326 -0.4359308,-4.9782899 -0.4359308,-4.9782899 -0.461243,-4.9763654 -0.4862694,-4.9736512 -0.5107243,-4.969358 -0.5226481,-4.9663725 -0.5343219,-4.9626962 -0.5457161,-4.9582474 -0.5568474,-4.9530723 -0.5784714,-4.9409575 -0.5994942,-4.9271818 -0.6202165,-4.9125757 -0.563788,-4.8475757 -0.563788,-4.8475757 -0.5495459,-4.857419 -0.5349164,-4.8665665 -0.5195869,-4.874457 -0.5037878,-4.8815043 -0.5037878,-4.8815043 -0.4897999,-4.8856581 -0.4756468,-4.8888453 -0.4612249,-4.8904584 -0.4466451,-4.8911471 -0.4466451,-4.8911471 -0.4320676,-4.8905628 -0.4178198,-4.8886419 -0.4109197,-4.8867744 -0.4041717,-4.8842911 -0.3909307,-4.87829 -0.3909307,-4.87829 -0.3830473,-4.872188 -0.3795728,-4.8688526 -0.376659,-4.8651759 -0.3744694,-4.8610584 -0.3729285,-4.856546 -0.3709308,-4.8468614 -0.3709308,-4.8375757 -0.3709308,-4.8375757 -0.372447,-4.8294436 -0.3753428,-4.8220815 -0.3803848,-4.8159172 -0.3866449,-4.8104328 -0.3866449,-4.8104328 -0.3999461,-4.802831 -0.4136436,-4.7960831 -0.4278639,-4.7904616 -0.4423593,-4.7854328 -0.5102166,-4.7625757 -0.5102166,-4.7625757 -0.533721,-4.7525121 -0.5561352,-4.7415754 -0.5665929,-4.7355069 -0.5763692,-4.7288927 -0.585328,-4.7216236 -0.5933329,-4.7135907 -0.6002511,-4.7046874 -0.6060741,-4.694907 -0.6109498,-4.684368 -0.6150361,-4.6731968 -0.618491,-4.6615198 -0.6214722,-4.6494634 -0.6266452,-4.6247186 -0.6266452,-4.60329 -0.6266452,-4.60329 -0.6247285,-4.5821068 -0.6229945,-4.5717749 -0.6203298,-4.5617546 -0.6165107,-4.5521206 -0.6117317,-4.5428081 -0.6005736,-4.5247186 -0.6005736,-4.5247186 -0.5851722,-4.5084859 -0.5770414,-4.5009608 -0.5683947,-4.4941448 -0.5591425,-4.4881611 -0.5494101,-4.4828374 -0.5291451,-4.47329 -0.5291451,-4.47329 -0.5044737,-4.4655122 -0.4920337,-4.4622028 -0.4794685,-4.4595885 -0.4667561,-4.457792 -0.4539269,-4.4566449 -0.4280735,-4.4554328 -0.4280735,-4.4554328 -0.4002634,-4.4570283 -0.3727539,-4.4594787 -0.3458456,-4.4636388 -0.3327109,-4.4666271 -0.3198391,-4.4703635 -0.3072664,-4.4749501 -0.2949904,-4.4803808 -0.2829704,-4.4865395 -0.2711637,-4.4933046 -0.2480195,-4.5081692 -0.2252165,-4.5240043z" transform="matrix(1,0,0,-1,4.8209307,1.0831386)" fill="rgb(150,150,150)" fill-rule="nonzero" shaper:cutDepth="0.001" stroke-linecap="round" stroke-linejoin="round" /><path d="M0.4187121,-4.5515043 L0.4187121,-4.5515043 0.4145845,-4.5482674 0.4100926,-4.5459589 0.4050795,-4.5449784 0.3997835,-4.5447185 0.3997835,-4.5447185 0.3876406,-4.5461472 0.3783549,-4.4668614 0.3783549,-4.4668614 0.3929238,-4.461805 0.407737,-4.4579951 0.4229356,-4.4561509 0.4383549,-4.4554328 0.4383549,-4.4554328 0.4597882,-4.4569906 0.4702269,-4.4585802 0.4803319,-4.4611425 0.4900091,-4.4649521 0.49931,-4.469859 0.5172836,-4.4815042 0.5172836,-4.4815042 0.5307063,-4.4984636 0.5363312,-4.5073798 0.5406561,-4.5168183 0.5435319,-4.5268392 0.5452864,-4.5373106 0.5469264,-4.5590043 0.5469264,-4.9954328 0.4240693,-4.9954328 0.4240693,-4.57329 0.4240693,-4.57329 0.4231406,-4.5619225 0.4213111,-4.556609 0.4187121,-4.5515043z" transform="matrix(1,0,0,-1,4.8209307,1.0831386)" fill="rgb(150,150,150)" fill-rule="nonzero" shaper:cutDepth="0.001" stroke-linecap="round" stroke-linejoin="round" /><path d="M0.638355,-4.4668614 L0.7283551,-4.4668614 0.7433551,-4.5075757 0.7433551,-4.5075757 0.7543618,-4.4963494 0.7656603,-4.4857213 0.7775424,-4.4762896 0.7903,-4.4686526 0.804135,-4.4632241 0.8188579,-4.4596158 0.8341728,-4.4572209 0.8497836,-4.4554328 0.8497836,-4.4554328 0.8706322,-4.4570325 0.8808689,-4.4584938 0.8908804,-4.460749 0.9006116,-4.4639923 0.9101086,-4.4680613 0.9287122,-4.4775757 0.9287122,-4.4775757 0.9453799,-4.4907438 0.9531593,-4.4978021 0.9602735,-4.5054294 0.9665992,-4.5137311 0.9722959,-4.5225709 0.9826408,-4.5411472 0.9826408,-4.5411472 0.9911759,-4.5646739 0.9947854,-4.5765717 0.9976057,-4.5886308 0.9995176,-4.6008756 1.0007166,-4.6132661 1.0019265,-4.63829 1.0019265,-4.6804328 1.0019265,-4.6804328 1.0005606,-4.7050835 0.9992593,-4.7172741 0.9972158,-4.729303 0.994236,-4.7411278 0.9904576,-4.7527786 0.9815693,-4.77579 0.9815693,-4.77579 0.9707581,-4.7945641 0.9648465,-4.8035145 0.9583277,-4.8119408 0.951048,-4.8197103 0.9431261,-4.8269257 0.9262122,-4.8404329 0.9262122,-4.8404329 0.907923,-4.8501352 0.8985771,-4.8543033 0.8889897,-4.8576517 0.8791091,-4.860005 0.8689901,-4.8615494 0.848355,-4.86329 0.848355,-4.86329 0.8243729,-4.8610929 0.8127477,-4.8590218 0.8015615,-4.8557837 0.7909275,-4.8510777 0.780762,-4.8451263 0.7612121,-4.8311472 0.7612121,-4.9954328 0.638355,-4.9954328 0.638355,-4.4668614z M0.7612121,-4.5754328 L0.7612121,-4.7525757 0.7612121,-4.7525757 0.7736836,-4.762896 0.7802303,-4.7673278 0.7871503,-4.7708854 0.7945228,-4.7733833 0.8022628,-4.7750208 0.818355,-4.7768614 0.818355,-4.7768614 0.8317473,-4.7752973 0.8381006,-4.7738371 0.8440424,-4.771563 0.8494683,-4.7682683 0.8544584,-4.7641116 0.8637122,-4.7543614 0.8637122,-4.7543614 0.8711688,-4.7376424 0.8742011,-4.7291154 0.8764143,-4.7203914 0.8778038,-4.7114692 0.8785713,-4.7023974 0.8790694,-4.6840043 0.8790694,-4.6361471 0.8790694,-4.6361471 0.8789006,-4.6190221 0.8779116,-4.6025092 0.8768533,-4.5946738 0.8752823,-4.5872209 0.8730962,-4.5802273 0.8701925,-4.5737694 0.8664685,-4.5679237 0.8618283,-4.5627621 0.8563012,-4.5582624 0.8500316,-4.5543171 0.8358588,-4.5476458 0.8204979,-4.5418614 0.8204979,-4.5418614 0.8027752,-4.5449763 0.7944274,-4.547468 0.7866954,-4.55108 0.7796738,-4.5559842 0.77321,-4.5619033 0.7612121,-4.5754328z" transform="matrix(1,0,0,-1,4.8209307,1.0831386)" fill="rgb(150,150,150)" fill-rule="nonzero" shaper:cutDepth="0.001" stroke-linecap="round" stroke-linejoin="round" /><path d="M1.6365693,-4.92079 L1.6365693,-4.92079 1.6452357,-4.9315251 1.6489548,-4.9371497 1.6519369,-4.9430827 1.6540274,-4.9493888 1.6553952,-4.9559974 1.6569264,-4.9697186 1.6569264,-4.9697186 1.6554366,-4.9836201 1.6540854,-4.9903198 1.6520066,-4.9967181 1.6490247,-5.0027423 1.6452907,-5.0084551 1.6365693,-5.0193614 1.6365693,-5.0193614 1.6253599,-5.0277754 1.6195171,-5.031378 1.6133887,-5.0342553 1.6069171,-5.0362614 1.600169,-5.0375657 1.5862121,-5.0390043 1.5862121,-5.0390043 1.5723264,-5.0375808 1.5656166,-5.0362827 1.5591864,-5.0342809 1.553104,-5.0314038 1.547312,-5.0277957 1.5362121,-5.0193614 1.5362121,-5.0193614 1.5276236,-5.0084131 1.5239497,-5.0026862 1.5210203,-4.9966558 1.5189823,-4.9902622 1.5176608,-4.9835766 1.5162121,-4.9697186 1.5162121,-4.9697186 1.5178005,-4.9561081 1.5191913,-4.949553 1.5212981,-4.943298 1.5242801,-4.9374099 1.5279785,-4.9318222 1.5365693,-4.9211471 1.5365693,-4.9211471 1.5475661,-4.9126527 1.5533068,-4.9090043 1.5593383,-4.9060745 1.5657224,-4.9040164 1.5723931,-4.9026665 1.5862121,-4.9011471 1.5862121,-4.9011471 1.600169,-4.9025857 1.6069171,-4.9038899 1.6133887,-4.905896 1.6195171,-4.9087733 1.6253599,-4.9123759 1.6365693,-4.92079z" transform="matrix(1,0,0,-1,4.8209307,1.0831386)" fill="rgb(150,150,150)" fill-rule="nonzero" shaper:cutDepth="0.001" stroke-linecap="round" stroke-linejoin="round" /><path d="M1.8087122,-4.8415043 L1.8087122,-4.8415043 1.792822,-4.8282523 1.7854252,-4.8211784 1.7786859,-4.813567 1.7727152,-4.8053275 1.7673526,-4.796591 1.7576407,-4.77829 1.7576407,-4.77829 1.7493842,-4.7545337 1.7458988,-4.7425297 1.743184,-4.7303746 1.7413507,-4.7180468 1.7402071,-4.7055839 1.7390693,-4.6804328 1.7390693,-4.6390043 1.7390693,-4.6390043 1.7404216,-4.613969 1.7417307,-4.6015901 1.7437993,-4.5893777 1.7468304,-4.5773763 1.7506884,-4.5655563 1.7597836,-4.5422186 1.7597836,-4.5422186 1.7707028,-4.5235171 1.7766645,-4.5146052 1.7832288,-4.5062199 1.7905496,-4.4984957 1.7985102,-4.4913307 1.8154979,-4.4779329 1.8154979,-4.4779329 1.8336449,-4.4684108 1.8429129,-4.4643156 1.8524145,-4.4610196 1.8622005,-4.4586969 1.8722184,-4.4571679 1.8926407,-4.4554328 1.8926407,-4.4554328 1.9157429,-4.4575824 1.9270107,-4.4595023 1.9379386,-4.4624365 1.9484471,-4.466622 1.958609,-4.4718416 1.978355,-4.4840043 1.978355,-4.3240043 2.1012122,-4.3240043 2.1012122,-4.8518614 1.9947836,-4.8518614 1.988355,-4.8168614 1.988355,-4.8168614 1.9770406,-4.8271597 1.9654682,-4.8368749 1.9533797,-4.8454239 1.940517,-4.8522238 1.9267317,-4.8569388 1.9122072,-4.8599837 1.89719,-4.8619152 1.8819264,-4.86329 1.8819264,-4.86329 1.8624815,-4.8616568 1.8529521,-4.8601952 1.8436544,-4.8579595 1.8346427,-4.8547682 1.8258677,-4.8507861 1.8087122,-4.8415043z M1.8765693,-4.7547186 L1.8765693,-4.7547186 1.8849594,-4.764118 1.8895066,-4.768156 1.8944766,-4.7713997 1.8999596,-4.7736794 1.9058597,-4.7751754 1.918355,-4.7768614 1.918355,-4.7768614 1.9359461,-4.7742998 1.9442941,-4.7721352 1.9521051,-4.7689101 1.9592721,-4.7644132 1.965921,-4.7588931 1.978355,-4.7461471 1.978355,-4.5611471 1.978355,-4.5611471 1.9659314,-4.5530786 1.9595253,-4.5495942 1.9528858,-4.5467697 1.9459588,-4.5447587 1.9387942,-4.5434197 1.9240693,-4.5418614 1.9240693,-4.5418614 1.910503,-4.543503 1.9040638,-4.5450077 1.8980374,-4.5473329 1.8925252,-4.5506807 1.8874436,-4.5548844 1.8779979,-4.5647185 1.8779979,-4.5647185 1.8703276,-4.5809301 1.8671841,-4.5892122 1.8648594,-4.5977031 1.8633792,-4.6064094 1.8625392,-4.6152789 1.8619265,-4.63329 1.8619265,-4.6875757 1.8619265,-4.6875757 1.8624462,-4.7051109 1.863196,-4.7137616 1.8645336,-4.722272 1.8666481,-4.730597 1.8695248,-4.7387402 1.8765693,-4.7547186z" transform="matrix(1,0,0,-1,4.8209307,1.0831386)" fill="rgb(150,150,150)" fill-rule="nonzero" shaper:cutDepth="0.001" stroke-linecap="round" stroke-linejoin="round" /><path d="M1.0483306,-3.4977793 L1.0483306,-3.4977793 1.0621783,-3.5148899 1.0752014,-3.5323305 1.0865751,-3.5504309 1.0913857,-3.5598316 1.0954766,-3.5695202 1.0988269,-3.5795051 1.1015227,-3.5897519 1.1053245,-3.6108813 1.1076301,-3.6326092 1.1091877,-3.6546364 1.1091877,-3.8517793 1.1091877,-3.8517793 1.1076764,-3.8740206 1.1054136,-3.8959636 1.1016476,-3.9173099 1.0989661,-3.9276661 1.0956271,-3.9377612 1.0915426,-3.9475604 1.0867288,-3.9570701 1.0753236,-3.9753838 1.0622454,-3.9930333 1.0483306,-4.0103507 1.0483306,-4.0103507 1.029003,-4.0238276 1.0093767,-4.0364527 0.9891533,-4.0473744 0.9787243,-4.0519304 0.968037,-4.0557493 0.9570954,-4.0588431 0.9459309,-4.0613008 0.9230602,-4.0646717 0.89968,-4.0665889 0.8760449,-4.0677792 0.8760449,-4.0677792 0.8525814,-4.0666298 0.8293773,-4.0647505 0.8066918,-4.0614113 0.7956246,-4.0589661 0.7847843,-4.0558823 0.7742029,-4.0520697 0.7638863,-4.0475121 0.7439044,-4.0365631 0.7245356,-4.0238883 0.7054735,-4.0103507 0.7054735,-4.0103507 0.691897,-3.9929208 0.679143,-3.9751727 0.668034,-3.9567885 0.6633534,-3.9472584 0.6593893,-3.9374512 0.6561532,-3.9273625 0.6535586,-3.9170256 0.6499274,-3.8957494 0.6477624,-3.8739061 0.6463306,-3.8517793 0.6463306,-3.6546364 0.6463306,-3.6546364 0.6478072,-3.6327236 0.6500136,-3.6110951 0.6536796,-3.5900355 0.656288,-3.5798079 0.659535,-3.5698292 0.6635055,-3.5601324 0.6681831,-3.5507112 0.6792617,-3.5325405 0.6919621,-3.5150019 0.7054735,-3.4977793 0.7054735,-3.4977793 0.7245356,-3.4842416 0.7439044,-3.4715668 0.7638862,-3.4606179 0.7742029,-3.4560602 0.7847843,-3.4522476 0.7956246,-3.4491638 0.8066918,-3.4467186 0.8293773,-3.4433794 0.8525814,-3.4415001 0.8760449,-3.4403507 0.8760449,-3.4403507 0.89968,-3.441541 0.9230603,-3.4434581 0.9459309,-3.446829 0.9570954,-3.4492868 0.968037,-3.4523806 0.9787244,-3.4561995 0.9891533,-3.4607555 1.0093768,-3.4716772 1.029003,-3.4843024 1.0483306,-3.4977793z M0.7946163,-3.6554936 L0.7946163,-3.8526364 0.7946163,-3.8526364 0.7958294,-3.8737641 0.7981087,-3.8939975 0.7999813,-3.9034993 0.8025204,-3.9124421 0.8058591,-3.9207141 0.8101307,-3.9282036 0.8154685,-3.9347987 0.8219418,-3.9404413 0.8294215,-3.9452397 0.8377399,-3.9493346 0.8467291,-3.9528668 0.8562215,-3.9559769 0.8760449,-3.9614936 0.8760449,-3.9614936 0.8940436,-3.9599451 0.9026934,-3.9583567 0.9109236,-3.9557913 0.9186153,-3.9519719 0.9258322,-3.9470468 0.9394734,-3.9353507 0.9394734,-3.9353507 0.9497825,-3.9160784 0.9539923,-3.9061739 0.9570867,-3.8959527 0.9590442,-3.8854087 0.9601415,-3.8746203 0.960902,-3.8526364 0.960902,-3.6554936 0.960902,-3.6554936 0.9592402,-3.6344671 0.9564972,-3.6143893 0.9543822,-3.6050025 0.9515915,-3.5962087 0.9479898,-3.5881263 0.943442,-3.580874 0.9378144,-3.574569 0.9310784,-3.5692364 0.9233786,-3.5647493 0.9148757,-3.5609669 0.9057302,-3.5577482 0.8961028,-3.5549522 0.8760449,-3.550065 0.8760449,-3.550065 0.8564752,-3.5552096 0.8470946,-3.5581277 0.838199,-3.5614607 0.8299501,-3.565347 0.8225096,-3.5699248 0.8160391,-3.5753325 0.8106737,-3.5816855 0.8063616,-3.5889397 0.8029715,-3.5969826 0.8003716,-3.6057016 0.7984303,-3.6149839 0.7959965,-3.634788 0.7946163,-3.6554936z" transform="matrix(1,0,0,-1,4.8209307,1.0831386)" fill="rgb(150,150,150)" fill-rule="nonzero" shaper:cutDepth="0.001" stroke-linecap="round" stroke-linejoin="round" /><path d="M0.9569479,-3.1890528 L0.9569479,-3.1890528 0.9433284,-3.1687028 0.9305626,-3.148063 0.9195043,-3.1268436 0.9148823,-3.1159259 0.9110001,-3.1047572 0.9078506,-3.0933397 0.905344,-3.081704 0.9018921,-3.0579026 0.8999098,-3.0336024 0.8986622,-3.0090528 0.8986622,-2.9653385 0.8986622,-2.9653385 0.9010306,-2.9295068 0.9046771,-2.8942187 0.907379,-2.8769485 0.9108797,-2.860018 0.9153389,-2.8434952 0.9209164,-2.8274482 0.9277655,-2.811942 0.9358786,-2.7969735 0.9450818,-2.7824688 0.9551935,-2.7683504 0.9774154,-2.7409639 1.0010908,-2.7141957 1.0010908,-2.7141957 1.0360539,-2.6934772 1.0714359,-2.6741172 1.0894149,-2.6653711 1.1076557,-2.657474 1.1262107,-2.6505958 1.1451212,-2.6448702 1.1643667,-2.6402308 1.1839053,-2.6365421 1.2036952,-2.6336681 1.2236945,-2.6314731 1.2641537,-2.6285769 1.3049479,-2.626767 1.3049479,-2.7399099 1.3049479,-2.7399099 1.2579304,-2.7422841 1.234655,-2.7445483 1.2116597,-2.7481052 1.1890327,-2.7533629 1.1667586,-2.7602493 1.1228051,-2.7767671 1.1228051,-2.7767671 1.1081308,-2.7870311 1.0941127,-2.7977542 1.0814069,-2.8093954 1.0757512,-2.8157037 1.0706696,-2.8224136 1.0662059,-2.8295559 1.0622988,-2.8370875 1.0558361,-2.8530963 1.0506454,-2.8699949 1.0460908,-2.8873385 1.0460908,-2.8873385 1.0588924,-2.8761519 1.0724293,-2.8661053 1.0871832,-2.8579454 1.1026622,-2.8509099 1.1026622,-2.8509099 1.1217516,-2.8453237 1.1410767,-2.8411609 1.1607664,-2.8391989 1.1806622,-2.8384814 1.1806622,-2.8384814 1.2052038,-2.8400005 1.2172962,-2.8414664 1.2291747,-2.8437798 1.2407821,-2.8471665 1.2521571,-2.851474 1.2745193,-2.8616242 1.2745193,-2.8616242 1.2928818,-2.8745105 1.3015093,-2.8814772 1.3094722,-2.8890723 1.3166207,-2.8974375 1.323101,-2.9064345 1.3349479,-2.9254814 1.3349479,-2.9254814 1.343846,-2.9474439 1.347642,-2.9585746 1.3506545,-2.9698844 1.3527372,-2.9814069 1.3540771,-2.9930993 1.3555194,-3.0167671 1.3555194,-3.0544814 1.3555194,-3.0544814 1.3536187,-3.0804688 1.3519202,-3.0932713 1.349324,-3.1058442 1.3456199,-3.1181338 1.3409999,-3.1301893 1.3302336,-3.1539099 1.3302336,-3.1539099 1.3147817,-3.1760132 1.3064059,-3.1863868 1.2972506,-3.1959468 1.2871739,-3.2045453 1.2763634,-3.212378 1.2535193,-3.2267671 1.2535193,-3.2267671 1.2230343,-3.2390903 1.2075712,-3.2442708 1.1918438,-3.2482763 1.1758185,-3.2509572 1.1595617,-3.2526086 1.1266622,-3.2541956 1.1266622,-3.2541956 1.1027644,-3.2527383 1.0791943,-3.2504645 1.0562796,-3.2465578 1.0451705,-3.2437369 1.0343482,-3.2402016 1.0238523,-3.235853 1.0136831,-3.2306905 1.0037961,-3.2248249 0.9941443,-3.2183735 0.975358,-3.2041818 0.9569479,-3.1890528z M1.0868051,-2.9533385 L1.0868051,-2.9533385 1.0748262,-2.9604334 1.0635038,-2.9683658 1.0532156,-2.9776174 1.0435194,-2.9876242 1.0435194,-3.0304814 1.0435194,-3.0304814 1.0440537,-3.0533931 1.0449809,-3.0646866 1.0467,-3.0757853 1.0494703,-3.0866254 1.0533073,-3.0972032 1.0628051,-3.11791 1.0628051,-3.11791 1.0761026,-3.1300427 1.0831978,-3.1351098 1.0908266,-3.1389824 1.099043,-3.1415396 1.1077121,-3.1430833 1.1258051,-3.1444814 1.1258051,-3.1444814 1.1448202,-3.1405395 1.1626916,-3.135543 1.170841,-3.1323196 1.1782756,-3.1284371 1.1848524,-3.1237636 1.1904321,-3.1181706 1.1949931,-3.1116383 1.1986555,-3.1042773 1.2015477,-3.096206 1.203798,-3.0875428 1.2068865,-3.0689142 1.2089479,-3.0493385 1.2089479,-3.0219099 1.2089479,-3.0219099 1.2070897,-3.0053757 1.2043598,-2.9896556 1.2023956,-2.9823553 1.1998865,-2.9755638 1.1967237,-2.9693829 1.1927981,-2.9639143 1.1880106,-2.9592507 1.1823897,-2.9553654 1.1760527,-2.9521489 1.1691192,-2.9494896 1.1539394,-2.9453968 1.137805,-2.9421956 1.137805,-2.9421956 1.1246085,-2.9429697 1.1116505,-2.9448187 1.0991013,-2.9485091 1.0868051,-2.9533385z" transform="matrix(1,0,0,-1,4.8209307,1.0831386)" fill="rgb(150,150,150)" fill-rule="nonzero" shaper:cutDepth="0.001" stroke-linecap="round" stroke-linejoin="round" /><path d="M0.9223098,-0.9653439 L1.0800241,-0.9653439 0.8657384,-1.4530582 1.1443098,-1.4530582 1.1443098,-1.5653439 0.7157384,-1.5653439 0.7157384,-1.4556297 0.9223098,-0.9653439z" transform="matrix(1,0,0,-1,4.8209307,1.0831386)" fill="rgb(150,150,150)" fill-rule="nonzero" shaper:cutDepth="0.001" stroke-linecap="round" stroke-linejoin="round" /><path d="M-0.4245361,-0.239812 L-0.4245361,-0.239812 -0.4438994,-0.2279531 -0.4530964,-0.2214919 -0.4617119,-0.2143929 -0.4696099,-0.2065067 -0.4769148,-0.19797 -0.4905361,-0.1798121 -0.4905361,-0.1798121 -0.5008884,-0.1589398 -0.5053094,-0.1482955 -0.5088243,-0.1374017 -0.5112602,-0.1262105 -0.5128321,-0.1147814 -0.5145361,-0.0915264 -0.5145361,-0.0418121 -0.5145361,-0.0418121 -0.5122023,-0.0178138 -0.5101873,-0.0060897 -0.5071545,0.0053045 -0.502886,0.0162981 -0.4976131,0.0269661 -0.4853932,0.0477594 -0.4853932,0.0477594 -0.4677637,0.0677902 -0.4584126,0.077128 -0.4484181,0.0856529 -0.437674,0.0932307 -0.4263378,0.1000605 -0.4026789,0.1124736 -0.4026789,0.1124736 -0.3721989,0.1231095 -0.356797,0.1276049 -0.3412008,0.1311143 -0.3253816,0.1334906 -0.3093874,0.1349785 -0.2771075,0.1364737 -0.2771075,0.1364737 -0.2442515,0.1339235 -0.211922,0.1301759 -0.1961192,0.1274789 -0.1806454,0.1240335 -0.1655664,0.11969 -0.1509481,0.1142987 -0.1368504,0.1077234 -0.1232561,0.1000029 -0.1100944,0.0912986 -0.0972931,0.0817745 -0.0724834,0.0609228 -0.0482503,0.0387594 -0.1288218,-0.0409549 -0.1288218,-0.0409549 -0.1439879,-0.0267891 -0.1597783,-0.0134527 -0.1767019,-0.0016223 -0.1943932,0.0091879 -0.1943932,0.0091879 -0.2118576,0.0159236 -0.2207051,0.0187558 -0.2296907,0.0209464 -0.2480947,0.0233174 -0.2668218,0.024188 -0.2668218,0.024188 -0.2859192,0.0230901 -0.29529,0.0219204 -0.3044475,0.0200057 -0.3133293,0.017129 -0.3219643,0.0133906 -0.3388218,0.0044737 -0.3388218,0.0044737 -0.3506746,-0.0072062 -0.3557329,-0.013474 -0.3597498,-0.0202554 -0.362529,-0.027647 -0.364319,-0.0355263 -0.3662503,-0.0520978 -0.3662503,-0.0795263 -0.3662503,-0.0795263 -0.3613981,-0.0982193 -0.358642,-0.1071817 -0.3554899,-0.1156832 -0.3518098,-0.1235703 -0.3474699,-0.1306892 -0.342338,-0.1368864 -0.3363023,-0.1420316 -0.3294021,-0.1461706 -0.3217451,-0.1494287 -0.3134394,-0.1519318 -0.3045931,-0.1538058 -0.2857113,-0.1561694 -0.2659646,-0.1575264 -0.2659646,-0.1575264 -0.2483195,-0.156863 -0.2308218,-0.1545264 -0.2308218,-0.1545264 -0.2105895,-0.1499667 -0.1905361,-0.1446692 -0.1039646,-0.1446692 -0.1039646,-0.4772407 -0.4776789,-0.4772407 -0.4776789,-0.3640978 -0.2453932,-0.3640978 -0.2453932,-0.2492407 -0.2453932,-0.2492407 -0.2660642,-0.2544945 -0.28692,-0.2584819 -0.3080712,-0.2604462 -0.3293932,-0.2612406 -0.3293932,-0.2612406 -0.3540686,-0.2597661 -0.366258,-0.2583815 -0.3782693,-0.25622 -0.390057,-0.2530825 -0.4016553,-0.2491184 -0.4245361,-0.239812z" transform="matrix(1,0,0,-1,4.8209307,1.0831386)" fill="rgb(150,150,150)" fill-rule="nonzero" shaper:cutDepth="0.001" stroke-linecap="round" stroke-linejoin="round" /><path d="M-1.8028321,0.1953203 L-1.8028321,0.1953203 -1.776996,0.1811743 -1.7645203,0.1735154 -1.7525754,0.1651534 -1.7412762,0.1559362 -1.7305027,0.1460226 -1.7098321,0.1250346 -1.7895464,0.0487489 -1.7895464,0.0487489 -1.804223,0.0621023 -1.8192083,0.0747768 -1.8348108,0.0860937 -1.84294,0.0910308 -1.8513392,0.095374 -1.8600412,0.0990511 -1.8690298,0.1020978 -1.8877034,0.1066592 -1.9070324,0.1097788 -1.9266892,0.1121774 -1.9266892,0.1121774 -1.946223,0.1111887 -1.9558292,0.1100946 -1.9652426,0.1082808 -1.9744057,0.1055327 -1.9833414,0.1019355 -2.0008321,0.0933203 -2.0008321,0.0933203 -2.0131167,0.0813739 -2.018319,0.0749368 -2.022394,0.0679436 -2.0251648,0.0603069 -2.0269096,0.052164 -2.0286892,0.0350345 -2.0286892,0.0170346 -2.0286892,0.0170346 -2.0262658,-0.0016949 -2.0239929,-0.0104197 -2.0204466,-0.0183766 -2.015301,-0.0253691 -2.0088016,-0.0315453 -1.9935464,-0.0425369 -1.9935464,-0.0425369 -1.9744944,-0.0497889 -1.964853,-0.0528791 -1.955073,-0.0553265 -1.9451293,-0.0570139 -1.9350551,-0.058096 -1.9146892,-0.0592512 -1.8684035,-0.0592512 -1.8684035,-0.1595368 -1.9146892,-0.1595368 -1.9146892,-0.1595368 -1.9322286,-0.1604307 -1.9494475,-0.1627672 -1.9578432,-0.1648974 -1.9661046,-0.1676317 -1.9824035,-0.1741083 -1.9824035,-0.1741083 -1.9945993,-0.1833068 -1.9998084,-0.1884292 -2.0039511,-0.1941791 -2.006823,-0.200677 -2.0086771,-0.2077737 -2.0106892,-0.2229654 -2.0106892,-0.2409655 -2.0106892,-0.2409655 -2.0091517,-0.2546165 -2.0076942,-0.2610962 -2.0054103,-0.2671608 -2.0020851,-0.2727025 -1.997874,-0.2777993 -1.9879749,-0.2872511 -1.9879749,-0.2872511 -1.9737251,-0.294297 -1.9664441,-0.2972395 -1.9589766,-0.299488 -1.9513036,-0.3009727 -1.9434725,-0.3018687 -1.9275464,-0.3026797 -1.9275464,-0.3026797 -1.9100691,-0.3015761 -1.8928893,-0.2990954 -1.8762095,-0.2943015 -1.8598321,-0.2881083 -1.8598321,-0.2881083 -1.8423885,-0.2786752 -1.8256078,-0.2682633 -1.8098566,-0.2563311 -1.7946892,-0.2435369 -1.7218321,-0.316394 -1.7218321,-0.316394 -1.7437352,-0.3362183 -1.7550393,-0.3456256 -1.7667665,-0.354427 -1.77902,-0.3624747 -1.7917131,-0.3698928 -1.8178321,-0.3836797 -1.8178321,-0.3836797 -1.8486378,-0.3942745 -1.8642039,-0.3987276 -1.8799652,-0.4021696 -1.8959467,-0.4044726 -1.9120992,-0.4058905 -1.9446892,-0.4072511 -1.9446892,-0.4072511 -1.972194,-0.4059648 -1.9858445,-0.4047509 -1.9993727,-0.402852 -2.0127471,-0.4000912 -2.0259908,-0.3965987 -2.0522607,-0.388394 -2.0522607,-0.388394 -2.0735529,-0.3786552 -2.0838153,-0.3732365 -2.0936173,-0.3671586 -2.1028337,-0.3602424 -2.1115434,-0.3526009 -2.1281178,-0.3361083 -2.1281178,-0.3361083 -2.1396044,-0.3189271 -2.1445631,-0.3100525 -2.1485803,-0.300837 -2.1514379,-0.2912017 -2.1533388,-0.2812201 -2.1555464,-0.2606797 -2.1555464,-0.226394 -2.1555464,-0.226394 -2.1526488,-0.2069817 -2.1503128,-0.1976758 -2.1469128,-0.1888498 -2.1422779,-0.1805809 -2.1366699,-0.1727509 -2.1238321,-0.1578226 -2.1238321,-0.1578226 -2.1063568,-0.1437224 -2.0972693,-0.1373313 -2.0877621,-0.1317311 -2.0777518,-0.1270787 -2.0673367,-0.1231888 -2.0458321,-0.1166797 -2.0458321,-0.1166797 -2.0704922,-0.1105339 -2.0824914,-0.1067389 -2.0940937,-0.1020776 -2.1052091,-0.0963535 -2.1159246,-0.0897567 -2.1366892,-0.0751083 -2.1366892,-0.0751083 -2.1535432,-0.0565572 -2.1607651,-0.0467306 -2.1665408,-0.0362429 -2.1705751,-0.0249591 -2.1732037,-0.0130326 -2.1761178,0.0118917 -2.1761178,0.0521774 -2.1761178,0.0521774 -2.1736525,0.0755871 -2.1715212,0.0869712 -2.1683116,0.0979702 -2.163792,0.1085016 -2.1582069,0.1186525 -2.1452607,0.1383203 -2.1452607,0.1383203 -2.1265692,0.1571785 -2.1167394,0.1659253 -2.1063292,0.1738539 -2.0952484,0.1808374 -2.0836406,0.1870778 -2.0595464,0.1983203 -2.0595464,0.1983203 -2.0294294,0.2078769 -2.014241,0.2119373 -1.9988969,0.2151364 -1.9833705,0.2173276 -1.9676998,0.2187209 -1.9361178,0.2201775 -1.9361178,0.2201775 -1.9018492,0.2188167 -1.8848681,0.2173513 -1.8680708,0.214944 -1.8515113,0.2113181 -1.8351657,0.2065962 -1.8028321,0.1953203z" transform="matrix(1,0,0,-1,4.8209307,1.0831386)" fill="rgb(150,150,150)" fill-rule="nonzero" shaper:cutDepth="0.001" stroke-linecap="round" stroke-linejoin="round" /><path d="M-3.4249755,-0.7477132 L-3.0649755,-0.7477132 -3.0649755,-0.8548561 -3.1798326,-0.8548561 -3.1798326,-1.1951418 -3.0872612,-1.1531418 -3.0366898,-1.2457132 -3.2158326,-1.3477132 -3.325547,-1.3477132 -3.325547,-0.8548561 -3.4249755,-0.8548561 -3.4249755,-0.7477132z" transform="matrix(1,0,0,-1,4.8209307,1.0831386)" fill="rgb(150,150,150)" fill-rule="nonzero" shaper:cutDepth="0.001" stroke-linecap="round" stroke-linejoin="round" /><path d="M-4.0052735,-3.5144132 L-4.2024163,-3.5144132 -4.2024163,-3.4081274 -4.0052735,-3.4081274 -4.0052735,-3.165556 -3.8552734,-3.165556 -3.8552734,-3.765556 -4.2384163,-3.765556 -4.2384163,-3.657556 -4.0052735,-3.657556 -4.0052735,-3.5144132z" transform="matrix(1,0,0,-1,4.8209307,1.0831386)" fill="rgb(150,150,150)" fill-rule="nonzero" shaper:cutDepth="0.001" stroke-linecap="round" stroke-linejoin="round" /><path d="M-3.6174162,-3.7488417 L-3.6174162,-3.7488417 -3.6440468,-3.7320883 -3.6565929,-3.7229229 -3.6682159,-3.7128108 -3.6786955,-3.7015262 -3.6882253,-3.6892677 -3.705702,-3.6631274 -3.705702,-3.6631274 -3.7186793,-3.6321886 -3.7241853,-3.6164885 -3.7285126,-3.6005116 -3.7314671,-3.5842124 -3.7333379,-3.5676588 -3.7352734,-3.5341275 -3.7352734,-3.3961274 -3.7352734,-3.3961274 -3.7333106,-3.3628106 -3.7314288,-3.3463646 -3.7284665,-3.3301736 -3.7241385,-3.3143047 -3.7186422,-3.2987115 -3.705702,-3.2679846 -3.705702,-3.2679846 -3.6882253,-3.2418443 -3.6786955,-3.2295858 -3.6682159,-3.2183012 -3.6565929,-3.2081891 -3.6440468,-3.1990237 -3.6174162,-3.1822703 -3.6174162,-3.1822703 -3.5832765,-3.1686973 -3.5659703,-3.1629751 -3.548381,-3.1585283 -3.5304692,-3.1555339 -3.5123057,-3.1536732 -3.4755591,-3.1518417 -3.4755591,-3.1518417 -3.4391256,-3.153684 -3.4211201,-3.155549 -3.4033682,-3.1585464 -3.3859409,-3.1629937 -3.3687982,-3.1687121 -3.3349877,-3.1822703 -3.3349877,-3.1822703 -3.3084277,-3.1990923 -3.2959063,-3.2082818 -3.2842952,-3.2184056 -3.2738094,-3.2296843 -3.2642557,-3.2419196 -3.246702,-3.2679846 -3.246702,-3.2679846 -3.233584,-3.2986762 -3.2280107,-3.3142579 -3.2236197,-3.3301224 -3.2206124,-3.346318 -3.2187004,-3.3627755 -3.216702,-3.3961274 -3.216702,-3.5341275 -3.216702,-3.5341275 -3.2186727,-3.5676939 -3.2205736,-3.5842591 -3.223573,-3.6005628 -3.2279632,-3.6165354 -3.2335463,-3.632224 -3.246702,-3.6631274 -3.246702,-3.6631274 -3.2642557,-3.6891924 -3.2738094,-3.7014277 -3.2842952,-3.7127064 -3.2959063,-3.7228302 -3.3084277,-3.7320198 -3.3349877,-3.7488417 -3.3349877,-3.7488417 -3.3687982,-3.7623999 -3.3859409,-3.7681182 -3.4033682,-3.7725655 -3.4211201,-3.775563 -3.4391256,-3.777428 -3.4755591,-3.7792703 -3.4755591,-3.7792703 -3.5123057,-3.7774387 -3.5304692,-3.7755781 -3.548381,-3.7725837 -3.5659703,-3.7681369 -3.5832765,-3.7624147 -3.6174162,-3.7488417z M-3.3941305,-3.6374132 L-3.3941305,-3.6374132 -3.3812372,-3.6135462 -3.3759179,-3.6012877 -3.3719389,-3.5886428 -3.3693735,-3.5755904 -3.3678849,-3.5622275 -3.366702,-3.5349846 -3.366702,-3.3969846 -3.366702,-3.3969846 -3.3678562,-3.3695288 -3.3693333,-3.3560588 -3.3718904,-3.3428984 -3.3758671,-3.3301448 -3.381196,-3.3177786 -3.3941305,-3.2936989 -3.3941305,-3.2936989 -3.4114843,-3.2782379 -3.4206962,-3.2717158 -3.4305495,-3.2666419 -3.4411347,-3.2632209 -3.4522918,-3.2610913 -3.4755591,-3.2589846 -3.4755591,-3.2589846 -3.4988264,-3.2610913 -3.5099835,-3.2632209 -3.5205687,-3.2666419 -3.530422,-3.2717158 -3.5396339,-3.2782379 -3.5569877,-3.2936989 -3.5569877,-3.2936989 -3.5699222,-3.3177786 -3.5752511,-3.3301448 -3.5792278,-3.3428984 -3.5817849,-3.3560588 -3.583262,-3.3695288 -3.5844163,-3.3969846 -3.5844163,-3.5349846 -3.5844163,-3.5349846 -3.5832333,-3.5622275 -3.5817446,-3.5755903 -3.5791793,-3.5886428 -3.5752003,-3.6012877 -3.5698811,-3.6135462 -3.5569877,-3.6374132 -3.5569877,-3.6374132 -3.5396339,-3.6528741 -3.530422,-3.6593962 -3.5205687,-3.66447 -3.5099835,-3.6678911 -3.4988264,-3.6700207 -3.4755591,-3.6721274 -3.4755591,-3.6721274 -3.4522918,-3.6700207 -3.4411347,-3.6678911 -3.4305495,-3.66447 -3.4206963,-3.6593961 -3.4114843,-3.6528741 -3.3941305,-3.6374132z" transform="matrix(1,0,0,-1,4.8209307,1.0831386)" fill="rgb(150,150,150)" fill-rule="nonzero" shaper:cutDepth="0.001" stroke-linecap="round" stroke-linejoin="round" /><path d="M0.0869266,0.8202182 L0.0869266,1.0066468 0.2119266,1.0066468 0.2119266,0.5066468 0.0226408,0.5066468 0.0226408,0.5066468 -0.0017455,0.5076712 -0.0138487,0.5086901 -0.0258441,0.5103169 -0.0377019,0.5127192 -0.0494399,0.5157961 -0.0727164,0.5230754 -0.0727164,0.5230754 -0.090927,0.531762 -0.099663,0.5366041 -0.1079558,0.5420448 -0.1156881,0.5482425 -0.1229404,0.5550884 -0.1366447,0.5698611 -0.1366447,0.5698611 -0.1464993,0.5864714 -0.1507085,0.5950083 -0.1540561,0.6038232 -0.156377,0.6129695 -0.1578755,0.6223812 -0.1595019,0.6416468 -0.1595019,0.6823611 -0.1595019,0.6823611 -0.1578777,0.7003128 -0.1564197,0.7090765 -0.1541865,0.7175857 -0.1509952,0.7257802 -0.1470099,0.7337139 -0.1377162,0.7491468 -0.1377162,0.7491468 -0.1243766,0.763589 -0.1173339,0.7703241 -0.109844,0.7764763 -0.1018383,0.7819564 -0.0934274,0.7869084 -0.0759305,0.7959325 -0.1873592,1.0066468 -0.0523592,1.0066468 0.0397838,0.8202182 0.0869266,0.8202182z M0.0319265,0.7366468 L0.0319265,0.7366468 0.0188788,0.7358462 0.0062994,0.7335656 0.0003246,0.7314297 -0.0054458,0.7286478 -0.0166448,0.7220039 -0.0166448,0.7220039 -0.0244577,0.7132287 -0.0277763,0.7085791 -0.0303899,0.7036152 -0.032179,0.6982838 -0.0333157,0.6926616 -0.0345019,0.6809325 -0.0345019,0.6495039 -0.0345019,0.6495039 -0.0334972,0.6370397 -0.0324467,0.6310342 -0.0307384,0.6253004 -0.0281833,0.6199166 -0.0248753,0.614844 -0.017002,0.6052182 -0.017002,0.6052182 -0.0059491,0.598406 -0.0002414,0.5955547 0.0056832,0.593367 0.0181997,0.5910338 0.0312122,0.5902182 0.0869266,0.5902182 0.0869266,0.7366468 0.0319265,0.7366468z" transform="matrix(1,0,0,-1,4.8209307,1.0831386)" fill="rgb(150,150,150)" fill-rule="nonzero" shaper:cutDepth="0.001" stroke-linecap="round" stroke-linejoin="round" /><path d="M-1.2209307,1.0066468 L-1.1030735,1.0066468 -1.1030735,0.6866468 -1.0259308,0.9345039 -1.0266448,0.9352182 -0.9073593,0.9352182 -0.8287877,0.6795039 -0.8287877,1.0066468 -0.7173592,1.0066468 -0.7173592,0.5066468 -0.8745021,0.5066468 -0.9695021,0.8273611 -1.069502,0.5073611 -1.0687877,0.5066468 -1.2209307,0.5066468 -1.2209307,1.0066468z" transform="matrix(1,0,0,-1,4.8209307,1.0831386)" fill="rgb(150,150,150)" fill-rule="nonzero" shaper:cutDepth="0.001" stroke-linecap="round" stroke-linejoin="round" /><path d="M1.7404979,0.9702182 L1.7404979,0.9702182 1.7520377,0.9559593 1.7628903,0.9414255 1.7723683,0.9263418 1.7763771,0.9185079 1.7797862,0.9104341 1.7848246,0.8935744 1.7879928,0.8759665 1.7899142,0.8578599 1.7912122,0.8395039 1.7912122,0.6752182 1.7912122,0.6752182 1.7899528,0.6566837 1.788067,0.6383979 1.7849288,0.6206093 1.7799116,0.6035666 1.7765079,0.5954006 1.7724964,0.5874759 1.7629921,0.5722145 1.7520936,0.5575065 1.7404979,0.5430753 1.7404979,0.5430753 1.7243916,0.5318446 1.7080364,0.5213236 1.6911835,0.5122222 1.6824927,0.5084256 1.6735866,0.5052431 1.6551648,0.5006169 1.636106,0.4978078 1.6166224,0.4962102 1.5969265,0.4952182 1.5969265,0.4952182 1.5773736,0.4961761 1.5580368,0.4977422 1.5391322,0.5005249 1.520876,0.5051324 1.5120581,0.5083095 1.5034609,0.5121075 1.4868093,0.5212317 1.4706687,0.531794 1.4547835,0.5430753 1.4547835,0.5430753 1.4434699,0.5576003 1.4328416,0.5723904 1.4235841,0.5877105 1.4196835,0.5956523 1.4163801,0.6038249 1.4115213,0.6208463 1.4084952,0.6385764 1.4066911,0.6567792 1.4054979,0.6752182 1.4054979,0.8395039 1.4054979,0.8395039 1.4067284,0.8577646 1.4085671,0.8757883 1.4116221,0.893338 1.4165016,0.9101766 1.4198103,0.9182572 1.4237084,0.9261082 1.4329405,0.9412505 1.4435241,0.955866 1.4547835,0.9702182 1.4547835,0.9702182 1.4706687,0.9814996 1.4868093,0.9920619 1.5034609,1.0011861 1.5120581,1.0049841 1.520876,1.0081612 1.5391322,1.0127687 1.5580368,1.0155514 1.5773736,1.0171175 1.5969265,1.0180754 1.5969265,1.0180754 1.6166224,1.0170834 1.636106,1.0154858 1.6551648,1.0126767 1.6735866,1.0080504 1.6824927,1.0048679 1.6911835,1.0010713 1.7080364,0.9919699 1.7243916,0.9814489 1.7404979,0.9702182z M1.5290693,0.8387896 L1.5290693,0.6745039 1.5290693,0.6745039 1.5300802,0.6568975 1.5319796,0.6400363 1.5335402,0.6321182 1.5356561,0.6246658 1.5384383,0.6177725 1.541998,0.6115312 1.5464462,0.6060353 1.5518406,0.6013332 1.5580737,0.5973345 1.5650057,0.5939221 1.580407,0.5883869 1.5969265,0.5837896 1.5969265,0.5837896 1.6119255,0.58508 1.6191336,0.5864037 1.6259921,0.5885416 1.6324019,0.5917244 1.6384159,0.5958286 1.6497836,0.6055753 1.6497836,0.6055753 1.6583745,0.6216356 1.6618827,0.6298893 1.6644614,0.638407 1.6660927,0.6471937 1.667007,0.656184 1.6676408,0.6745039 1.6676408,0.8387896 1.6676408,0.8387896 1.666256,0.8563117 1.6639701,0.8730432 1.6622077,0.8808655 1.6598821,0.8881937 1.6568807,0.894929 1.6530908,0.9009726 1.6484011,0.9062268 1.6427878,0.9106706 1.6363713,0.9144099 1.6292856,0.9175619 1.6136415,0.9225741 1.5969265,0.9266468 1.5969265,0.9266468 1.5806185,0.9223596 1.5653883,0.9171503 1.5585142,0.9139118 1.5523138,0.9100969 1.5469217,0.9055905 1.5424505,0.9002963 1.5388571,0.8942512 1.536032,0.8875487 1.5338654,0.8802829 1.5322477,0.8725476 1.5302195,0.8560442 1.5290693,0.8387896z" transform="matrix(1,0,0,-1,4.8209307,1.0831386)" fill="rgb(150,150,150)" fill-rule="nonzero" shaper:cutDepth="0.001" stroke-linecap="round" stroke-linejoin="round" /><path d="M2.323355,1.0066468 L2.3862121,0.8802182 2.4526407,1.0066468 2.5790693,1.0066468 2.4576407,0.8130753 2.5754979,0.6209325 2.4454979,0.6209325 2.3840693,0.7509325 2.3226407,0.6209325 2.1976407,0.6209325 2.313355,0.8130753 2.1904979,1.0066468 2.323355,1.0066468z" transform="matrix(1,0,0,-1,4.8209307,1.0831386)" fill="rgb(150,150,150)" fill-rule="nonzero" shaper:cutDepth="0.001" stroke-linecap="round" stroke-linejoin="round" /><path d="M0.4658752,-1.505532 A0.05,0.05 118.5 0,0 0.513591,-1.5934137 L0.2499459,-1.7365613 A0.05,0.05 298.5000012 1,0 0.20223,-1.6486796 L0.4658752,-1.505532z" transform="matrix(1,0,0,-1,4.8209307,1.0831386)" fill="rgb(150,150,150)" fill-rule="nonzero" shaper:cutDepth="0.001" stroke-linecap="round" stroke-linejoin="round" /><path d="M-1.854802,-0.6123932 A0.05,0.05 196.5 1,0 -1.75892,-0.5839917 L-1.6737154,-0.8716376 A0.05,0.05 16.5 0,0 -1.7695974,-0.9000391 L-1.854802,-0.6123932z" transform="matrix(1,0,0,-1,4.8209307,1.0831386)" fill="rgb(150,150,150)" fill-rule="nonzero" shaper:cutDepth="0.001" stroke-linecap="round" stroke-linejoin="round" /><path d="M-3.0147577,-3.3718479 A0.05,0.05 295 0,0 -3.0570195,-3.2812171 L-2.7851272,-3.1544316 A0.05,0.05 115 1,0 -2.7428653,-3.2450624 L-3.0147577,-3.3718479z" transform="matrix(1,0,0,-1,4.8209307,1.0831386)" fill="rgb(150,150,150)" fill-rule="nonzero" shaper:cutDepth="0.001" stroke-linecap="round" stroke-linejoin="round" /><path d="M-2.4472574,-0.9234421 A0.05,0.05 216 1,0 -2.3663557,-0.8646636 L-2.1900202,-1.1073687 A0.05,0.05 36 0,0 -2.2709219,-1.1661472 L-2.4472574,-0.9234421z" transform="matrix(1,0,0,-1,4.8209307,1.0831386)" fill="rgb(150,150,150)" fill-rule="nonzero" shaper:cutDepth="0.001" stroke-linecap="round" stroke-linejoin="round" /><path d="M0.038445,-0.9906939 A0.05,0.05 138 1,0 0.1127595,-1.0576069 L-0.0879797,-1.2805504 A0.05,0.05 318 0,0 -0.1622942,-1.2136373 L0.038445,-0.9906939z" transform="matrix(1,0,0,-1,4.8209307,1.0831386)" fill="rgb(150,150,150)" fill-rule="nonzero" shaper:cutDepth="0.001" stroke-linecap="round" stroke-linejoin="round" /><path d="M0.1796618,-3.3726627 A0.05,0.05 239.9999988 0,0 0.2296618,-3.2860601 L0.4894695,-3.4360601 A0.05,0.05 60.0000012 1,0 0.4394695,-3.5226627 L0.1796618,-3.3726627z" transform="matrix(1,0,0,-1,4.8209307,1.0831386)" fill="rgb(150,150,150)" fill-rule="nonzero" shaper:cutDepth="0.001" stroke-linecap="round" stroke-linejoin="round" /><path d="M-2.8209307,-2.4918614 a1.575,1.575 0 1,1 3.15,0 a1.575,1.575 0 1,1 -3.15,0z" transform="matrix(1,0,0,-1,4.8209307,1.0831386)" fill="rgb(255,255,255)" stroke="rgb(0,0,0)" stroke-width="0.0010cm" stroke-linecap="round" stroke-linejoin="round" shaper:cutDepth="0.002" /></svg>